<svg xmlns="http://www.w3.org/2000/svg" xmlns:xlink="http://www.w3.org/1999/xlink" viewBox="0 0 1591.45 657.64"><defs><style>.cls-1{opacity:0.44;}.cls-10,.cls-11,.cls-2,.cls-3,.cls-4,.cls-5,.cls-6,.cls-7,.cls-8,.cls-9{stroke:#000;stroke-miterlimit:10;}.cls-2{stroke-width:0.01px;}.cls-3{stroke-width:0.01px;}.cls-4{stroke-width:0.01px;}.cls-5{stroke-width:0.01px;}.cls-6{stroke-width:0.01px;}.cls-7{stroke-width:0.01px;}.cls-8{stroke-width:0.01px;}.cls-9{stroke-width:0.01px;}.cls-10{stroke-width:0.01px;}.cls-11{stroke-width:0.01px;}</style></defs><g id="Layer_2" data-name="Layer 2"><g id="Desktop"><g id="DeskHead"><g class="cls-1"><image width="669" height="172" transform="translate(1066.44) scale(0.51)" xlink:href="../doc/fcbf8b52ec3149242fa9484af36b4fd0.png"/><path id="E1-MJMATHI-3C8" class="cls-2" d="M199.61,34.83a3.72,3.72,0,0,1,2.74,1,3.39,3.39,0,0,1,1,2.49A20,20,0,0,1,202,42.81a16.38,16.38,0,0,0-1.31,5.28,4.15,4.15,0,0,0,1.14,2.79,4.75,4.75,0,0,0,1.81,1,3.43,3.43,0,0,0,1.31.33H205l3.46-14q3.56-14,3.59-14a1.75,1.75,0,0,1,.68-.08c.56,0,.84.1.84.29s-1.14,4.92-3.42,14q-3.46,13.86-3.46,13.9s.08,0,.25,0q3.63,0,6.89-3.72c2.17-2.48,3.26-4.79,3.29-6.93A4,4,0,0,0,216.8,40a2.39,2.39,0,0,0-.76-1,3.42,3.42,0,0,1-.76-.76,1.68,1.68,0,0,1-.34-1,2.48,2.48,0,0,1,.72-1.69,2.28,2.28,0,0,1,1.78-.81,2,2,0,0,1,1.48.76,3.74,3.74,0,0,1,.67,2.5,15.87,15.87,0,0,1-.46,3.29,27.6,27.6,0,0,1-.76,2.87,15.2,15.2,0,0,1-4.78,6.89,10.67,10.67,0,0,1-6.88,2.87h-.43l-1,3.93c-.67,2.65-1,4-1,4s-.34.25-.85.25h-.55c-.16-.17-.25-.28-.25-.34s.32-1.48,1-4,1-3.85,1-3.93a3.81,3.81,0,0,0-.59,0q-6.72-.93-6.71-6.21a18.59,18.59,0,0,1,1.39-5.28,23,23,0,0,0,1.44-4.86v-.59a.47.47,0,0,0-.17-.3.66.66,0,0,0-.47-.17h-.17a2.48,2.48,0,0,0-1.77.8,6.68,6.68,0,0,0-1.27,1.74,11.37,11.37,0,0,0-.72,1.77,5.11,5.11,0,0,1-.33.93,1.42,1.42,0,0,1-.68.08H194c-.17-.16-.26-.29-.26-.38a7.27,7.27,0,0,1,.55-1.94,9.52,9.52,0,0,1,2-3A4.51,4.51,0,0,1,199.61,34.83Z"/><path id="E1-MJMAIN-28" class="cls-2" d="M224.28,42.9a35,35,0,0,1,.42-5.54,39.94,39.94,0,0,1,1-4.52,17.31,17.31,0,0,1,1.56-3.72l1.6-2.83a11.65,11.65,0,0,1,1.78-2.19c.79-.79,1.25-1.27,1.39-1.44a8.38,8.38,0,0,1,1.06-.89h.72c.39,0,.59.13.59.38,0,.09-.24.38-.72.89a18.37,18.37,0,0,0-1.73,2.24,28.91,28.91,0,0,0-2.07,3.63,23.86,23.86,0,0,0-1.78,5.83,43.43,43.43,0,0,0-.71,8.16,42.73,42.73,0,0,0,.71,8.11,27.2,27.2,0,0,0,1.74,5.87,18.28,18.28,0,0,0,2.07,3.63c.7.93,1.29,1.68,1.77,2.24a10.12,10.12,0,0,1,.72.89c0,.25-.21.38-.63.38h-.68l-1.18-1a20.85,20.85,0,0,1-5.79-9A34.56,34.56,0,0,1,224.28,42.9Z"/><path id="E1-MJMATHI-74" class="cls-2" d="M237.89,37.19q-.3-.28-.3-.42a3.13,3.13,0,0,1,.13-.67,1.66,1.66,0,0,1,.21-.6c0-.14.18-.21.38-.21l2.15,0h2.24l.8-3.38c.09-.31.19-.72.3-1.22a7.35,7.35,0,0,1,.3-1.1,8.37,8.37,0,0,0,.25-.85,1.51,1.51,0,0,1,.34-.72,4.42,4.42,0,0,0,.42-.5.92.92,0,0,1,.59-.38,3.35,3.35,0,0,1,.76-.09,1.32,1.32,0,0,1,1.06.47,1.38,1.38,0,0,1,.29.8,14.78,14.78,0,0,1-.38,2q-.37,1.68-.84,3.33l-.42,1.57a10.82,10.82,0,0,0,2.11.08h2.15c.2.2.3.35.3.47a2,2,0,0,1-.55,1.47h-4.52l-1.52,6.13q-1.65,6.76-1.65,7.27,0,1.77,1.14,1.77a4,4,0,0,0,2.87-1.44,10.67,10.67,0,0,0,2.24-3.54q.09-.26.21-.3a3.12,3.12,0,0,1,.64-.08h.17q.63,0,.63.33a1.82,1.82,0,0,1-.13.51,7.74,7.74,0,0,1-.76,1.61,14.21,14.21,0,0,1-1.43,2,7.68,7.68,0,0,1-2.16,1.78,5.22,5.22,0,0,1-2.57.71,4.9,4.9,0,0,1-2.41-.63,3.65,3.65,0,0,1-1.65-2.2A5.08,5.08,0,0,1,239.2,50v-.76l1.47-5.91q1.49-6,1.52-6a9.66,9.66,0,0,0-2.15-.09Z"/><path id="E1-MJMAIN-29" class="cls-2" d="M254.57,21.82l.17-.05h.93l1.19,1a20.89,20.89,0,0,1,5.78,9,34.62,34.62,0,0,1,1.82,11.16,35.42,35.42,0,0,1-.42,5.53,37,37,0,0,1-1,4.52,19.07,19.07,0,0,1-1.57,3.72c-.67,1.24-1.21,2.18-1.6,2.83a12.73,12.73,0,0,1-1.74,2.16l-1.35,1.39a11.52,11.52,0,0,1-1,.8l-.17.17h-1a.25.25,0,0,1-.21-.13.93.93,0,0,1-.13-.38s.19-.21.47-.54q6.54-6.81,6.55-20.07t-6.55-20.07c-.28-.34-.44-.52-.47-.55A.48.48,0,0,1,254.57,21.82Z"/><path id="E1-MJMAIN-3D" class="cls-2" d="M282.58,38.8a.93.93,0,0,1,.6-.85h26.91a1,1,0,0,1,.63.85,1,1,0,0,1-.59.8l-13.43,0H283.26A.84.84,0,0,1,282.58,38.8Zm0,8.2a.84.84,0,0,1,.68-.85h26.87c.39.28.59.56.59.85a.93.93,0,0,1-.63.84H283.18A.92.92,0,0,1,282.58,47Z"/><path id="E1-MJMATHI-65" class="cls-2" d="M326.52,46.36a11.71,11.71,0,0,1,.8-4.39,10.18,10.18,0,0,1,2.08-3.3,12.26,12.26,0,0,1,2.83-2.19,14,14,0,0,1,2.95-1.31,8,8,0,0,1,2.66-.38H338a5.81,5.81,0,0,1,3.3.93,3.06,3.06,0,0,1,1.39,2.74q0,3.81-4.69,5a24.61,24.61,0,0,1-5.66.59,6.79,6.79,0,0,0-1.61.08c0,.06-.08.55-.25,1.48a16.57,16.57,0,0,0-.29,2.45,5,5,0,0,0,.88,3.13,3.27,3.27,0,0,0,2.66,1.18,10.52,10.52,0,0,0,7.82-3.59q.38-.42.51-.42c.11,0,.29.12.55.38a1.46,1.46,0,0,1,.42.59c0,.14-.1.37-.38.67a11.44,11.44,0,0,1-1.27,1.15,16.34,16.34,0,0,1-1.94,1.31,11.17,11.17,0,0,1-2.66,1,12.41,12.41,0,0,1-3.21.42,6.24,6.24,0,0,1-5.16-2.24A8.37,8.37,0,0,1,326.52,46.36Zm14.11-7.81c-.17-1.47-1.12-2.2-2.87-2.2a6,6,0,0,0-4.48,2,10.7,10.7,0,0,0-1.22,1.73,6.52,6.52,0,0,0-.68,1.52l-.21.8a3.15,3.15,0,0,0,.84,0c3.19,0,5.41-.33,6.68-1A3.26,3.26,0,0,0,340.63,38.55Z"/><path id="E1-MJMAIN-2212" class="cls-3" d="M347.07,29v-.38a.65.65,0,0,1,.42-.6h17.35a.62.62,0,0,1,0,1.19H347.49a.65.65,0,0,1-.42-.59Z"/><path id="E1-MJMATHI-69" class="cls-3" d="M373.3,18.13a1.69,1.69,0,0,1,.56-1.25,2,2,0,0,1,1.32-.57,1.18,1.18,0,0,1,.89.36,1.33,1.33,0,0,1,.39.89,1.74,1.74,0,0,1-.59,1.26,2,2,0,0,1-1.32.6,1.35,1.35,0,0,1-.84-.3A1.27,1.27,0,0,1,373.3,18.13Zm-4.87,9.35a3.28,3.28,0,0,1,.27-.93,15,15,0,0,1,.71-1.52,4.92,4.92,0,0,1,1.32-1.52,2.69,2.69,0,0,1,1.79-.66,2.81,2.81,0,0,1,1.94.69,2.43,2.43,0,0,1,.81,1.85,5.7,5.7,0,0,1-.42,1.67c-.28.78-.68,1.82-1.2,3.14s-.93,2.44-1.25,3.37a4.92,4.92,0,0,0-.15,1q0,.75.51.75a2,2,0,0,0,.57-.09,2,2,0,0,0,.68-.42,4.07,4.07,0,0,0,.81-1.05,8.37,8.37,0,0,0,.75-1.76,1.23,1.23,0,0,1,.15-.42,1.07,1.07,0,0,1,.5-.06q.6,0,.6.3a3.28,3.28,0,0,1-.27.93,13,13,0,0,1-.74,1.52,4.86,4.86,0,0,1-1.35,1.49,3,3,0,0,1-1.85.66,2.77,2.77,0,0,1-1.76-.63,2.32,2.32,0,0,1-.84-1.91,3,3,0,0,1,.15-1c.1-.3.53-1.44,1.28-3.41s1.2-3.21,1.32-3.61A5,5,0,0,0,373,24.7c0-.48-.17-.71-.51-.71h-.06a2.07,2.07,0,0,0-1.64,1,6.94,6.94,0,0,0-1.14,2.51.35.35,0,0,0-.06.09.23.23,0,0,0,0,.09s0,0-.06.06l-.09,0h-.77Q368.43,27.57,368.43,27.48Z"/><path id="E1-MJMATHI-48" class="cls-3" d="M385,17q-1,0-1.08-.12a.62.62,0,0,1,0-.24,1.23,1.23,0,0,1,.33-1,2.12,2.12,0,0,1,.51,0c.81,0,2.17.06,4.06.06h1.88c.58,0,1,0,1.34,0a2.74,2.74,0,0,1,.6,0q.48,0,.48.3s0,.18-.06.42a1.13,1.13,0,0,1-.3.6h-.42L392,17a.57.57,0,0,1-.26,0,13,13,0,0,0-1.5.09.89.89,0,0,0-.54.32c-.05.08-.37,1.31-.95,3.68-.14.52-.29,1.09-.45,1.73s-.28,1.11-.36,1.4l-.12.45s1.45.06,4.33.06h4.34l0-.09c0-.06.3-1.28.92-3.67s.84-3.52.84-3.68-.57-.25-1.71-.29a4.09,4.09,0,0,1-.89-.06.26.26,0,0,1-.21-.27,3,3,0,0,1,.06-.36,2,2,0,0,1,.18-.57,1.1,1.1,0,0,1,.48-.09l1.25,0c.74,0,1.67,0,2.81,0s2.18,0,2.84,0l1.07,0q.51,0,.51.3,0,.81-.36,1h-.42l-.27,0a.57.57,0,0,1-.26,0,13,13,0,0,0-1.5.09.89.89,0,0,0-.54.32c-.06.1-.77,2.92-2.15,8.46s-2.07,8.34-2.09,8.42,0,.21.12.21a8.64,8.64,0,0,0,1.62.15h.92a1.3,1.3,0,0,1,.18.27s0,.2-.09.54a1.39,1.39,0,0,1-.3.56h-.45c-.73,0-2.07-.06-4-.06h-3.25a3.72,3.72,0,0,0-.63,0q-.51,0-.51-.27a1.39,1.39,0,0,1,.09-.41q.15-.57.3-.63a2.2,2.2,0,0,1,.45,0h.18c.53,0,1.13,0,1.79-.09l.24,0s.1-.05.18-.15a1.57,1.57,0,0,0,.18-.27,3.17,3.17,0,0,0,.17-.54c.08-.27.15-.55.21-.83s.17-.71.33-1.29.25-1,.33-1.34c.66-2.63,1-3.95,1-4s-1.45,0-4.33,0h-4.34l-1,4c-.68,2.67-1,4-1,4.15a.27.27,0,0,0,.24.27,11,11,0,0,0,1.5.09h.92a1.3,1.3,0,0,1,.18.27s0,.2-.09.54a1.39,1.39,0,0,1-.3.56h-.45c-.73,0-2.07-.06-4-.06H380.2a3.72,3.72,0,0,0-.63,0q-.51,0-.51-.27a3.22,3.22,0,0,1,.09-.41q.15-.57.3-.63a2.2,2.2,0,0,1,.45,0h.18c.53,0,1.13,0,1.79-.09a.8.8,0,0,0,.57-.36c.06-.08.77-2.85,2.15-8.3s2.06-8.34,2.06-8.63S386.08,17.07,385,17Z"/><path id="E1-MJMATHI-74-2" data-name="E1-MJMATHI-74" class="cls-3" d="M405.44,24.55q-.21-.21-.21-.3a2.62,2.62,0,0,1,.09-.47,1.23,1.23,0,0,1,.15-.42.25.25,0,0,1,.26-.15l1.53,0h1.58l.57-2.39q.09-.33.21-.87a6.71,6.71,0,0,1,.21-.77,5.65,5.65,0,0,0,.18-.6,1.1,1.1,0,0,1,.24-.51,4.1,4.1,0,0,0,.29-.36.68.68,0,0,1,.42-.27,2.48,2.48,0,0,1,.54-.06.92.92,0,0,1,.75.33,1,1,0,0,1,.21.57,11.06,11.06,0,0,1-.27,1.4c-.18.8-.38,1.59-.6,2.36l-.3,1.11a7,7,0,0,0,1.49.06h1.53q.21.21.21.33a1.4,1.4,0,0,1-.39,1h-3.2l-1.07,4.33q-1.17,4.79-1.17,5.14,0,1.26.81,1.26a2.85,2.85,0,0,0,2-1,7.57,7.57,0,0,0,1.58-2.51q.06-.18.15-.21a2.64,2.64,0,0,1,.45-.06h.12q.45,0,.45.24a1.47,1.47,0,0,1-.09.36,5.64,5.64,0,0,1-.54,1.14,11.32,11.32,0,0,1-1,1.4,5.17,5.17,0,0,1-1.52,1.25,3.64,3.64,0,0,1-1.82.51,3.41,3.41,0,0,1-1.7-.45,2.58,2.58,0,0,1-1.17-1.55,3.77,3.77,0,0,1-.06-.81V33l1.05-4.19c.69-2.8,1-4.22,1.07-4.24a7.3,7.3,0,0,0-1.52-.06Z"/><path id="E1-MJMAIN-2F" class="cls-3" d="M428.11,13.65a.61.61,0,0,1,.62.6q0,.15-5.16,14.4t-5.35,14.57a.61.61,0,0,1-.51.3.6.6,0,0,1-.39-.15.52.52,0,0,1-.18-.42q0-.3,5.2-14.57T427.63,14A.47.47,0,0,1,428.11,13.65Z"/><path id="E1-MJMAIN-210F" class="cls-3" d="M435.84,18.16a.48.48,0,0,0-.24-.48,3.58,3.58,0,0,0-1.22-.12,1.62,1.62,0,0,1-.57-.06.32.32,0,0,1-.15-.26,4.29,4.29,0,0,1,.15-.78,3.58,3.58,0,0,1,.24-.75,10.26,10.26,0,0,1,2.39-.21c1.39-.14,2.23-.21,2.51-.21s.54.11.54.33q0,.06-.27,1.2a11.35,11.35,0,0,1-.39,1.4,6.94,6.94,0,0,0,2.33.15h1.16a4.69,4.69,0,0,1,1.38.15.67.67,0,0,1,.45.72,1,1,0,0,1-.27.65l-.27.18h-5.26l-.45,2c-.08.3-.16.62-.23,1s-.15.61-.21.81l-.09.3c0,.07.11,0,.33-.15a5.58,5.58,0,0,1,3.37-1.11,5,5,0,0,1,2.63.72,2.67,2.67,0,0,1,1.19,2.51,16.33,16.33,0,0,1-1.07,4.63,31.35,31.35,0,0,0-1.11,3.58q0,.42.42.42a1.57,1.57,0,0,0,1.2-.72,5,5,0,0,0,1-1.85l.27-.66h1c.37,0,.56.08.56.24a4.45,4.45,0,0,1-.47,1.53,7.23,7.23,0,0,1-1.56,2.09,3.45,3.45,0,0,1-2.36,1.07,3.14,3.14,0,0,1-1.67-.48A2.71,2.71,0,0,1,440,34.74a2.92,2.92,0,0,1-.11-1,16.66,16.66,0,0,1,1-3.55,14.65,14.65,0,0,0,1-4.21q0-1.47-1.2-1.47A4,4,0,0,0,439,25a4.4,4.4,0,0,0-1.23,1,6.33,6.33,0,0,0-1,1.37,9.84,9.84,0,0,0-.54,1.7c-.28,1-.59,2.25-.92,3.65s-.58,2.31-.72,2.75a1.75,1.75,0,0,1-.48.5,1.65,1.65,0,0,1-1.16.48,1.31,1.31,0,0,1-.87-.3,1,1,0,0,1-.36-.83l3.71-15.06q0-.12-.15-.12l-1,0h-.21a1.53,1.53,0,0,0-.3,0c-.75,0-1.13-.28-1.13-.83a.93.93,0,0,1,.09-.42.75.75,0,0,1,.21-.27.76.76,0,0,1,.35-.12l.39-.06a2.49,2.49,0,0,1,.45,0h.42l1.31-.09Z"/><path id="E1-MJMATHI-3C8-2" data-name="E1-MJMATHI-3C8" class="cls-2" d="M458.25,34.83a3.74,3.74,0,0,1,2.75,1,3.42,3.42,0,0,1,1,2.49,20,20,0,0,1-1.35,4.48,16.38,16.38,0,0,0-1.31,5.28,4.2,4.2,0,0,0,1.14,2.79,4.71,4.71,0,0,0,1.82,1,3.35,3.35,0,0,0,1.31.33h0l3.46-14q3.56-14,3.6-14a1.65,1.65,0,0,1,.67-.08c.56,0,.85.1.85.29s-1.14,4.92-3.43,14q-3.46,13.86-3.46,13.9s.08,0,.25,0c2.43,0,4.72-1.24,6.89-3.72s3.27-4.79,3.29-6.93a4.14,4.14,0,0,0-.33-1.73,2.56,2.56,0,0,0-.76-1,3,3,0,0,1-.76-.76,1.61,1.61,0,0,1-.34-1,2.48,2.48,0,0,1,.72-1.69,2.26,2.26,0,0,1,1.77-.81,2,2,0,0,1,1.48.76,3.74,3.74,0,0,1,.68,2.5,16,16,0,0,1-.47,3.29,25.22,25.22,0,0,1-.76,2.87,15.17,15.17,0,0,1-4.77,6.89,10.71,10.71,0,0,1-6.89,2.87h-.42l-1,3.93q-1,4-1,4c-.05.17-.34.25-.84.25h-.55c-.17-.17-.26-.28-.26-.34s.33-1.48,1-4,1-3.85,1-3.93a4,4,0,0,0-.59,0q-6.72-.93-6.72-6.21a18.59,18.59,0,0,1,1.39-5.28,23,23,0,0,0,1.44-4.86v-.59a.47.47,0,0,0-.17-.3.64.64,0,0,0-.46-.17H458a2.5,2.5,0,0,0-1.78.8,6.92,6.92,0,0,0-1.27,1.74,11.27,11.27,0,0,0-.71,1.77,4.73,4.73,0,0,1-.34.93c-.06.06-.28.08-.68.08h-.59c-.17-.16-.25-.29-.25-.38a6.89,6.89,0,0,1,.55-1.94,9.31,9.31,0,0,1,2-3A4.51,4.51,0,0,1,458.25,34.83Z"/><path id="E1-MJMAIN-28-2" data-name="E1-MJMAIN-28" class="cls-2" d="M483,42.9a35,35,0,0,1,.42-5.54,40.11,40.11,0,0,1,1-4.52,18.38,18.38,0,0,1,1.56-3.72c.68-1.21,1.22-2.15,1.61-2.83a11.55,11.55,0,0,1,1.77-2.19c.79-.79,1.26-1.27,1.4-1.44a8,8,0,0,1,1.05-.89h.72c.4,0,.59.13.59.38a3.44,3.44,0,0,1-.71.89,19.33,19.33,0,0,0-1.74,2.24,31.64,31.64,0,0,0-2.07,3.63,24.35,24.35,0,0,0-1.77,5.83,42.57,42.57,0,0,0-.72,8.16,41.88,41.88,0,0,0,.72,8.11,27.83,27.83,0,0,0,1.73,5.87,19.33,19.33,0,0,0,2.07,3.63c.71.93,1.3,1.68,1.78,2.24a11,11,0,0,1,.71.89c0,.25-.21.38-.63.38h-.68l-1.18-1a20.85,20.85,0,0,1-5.79-9A34.55,34.55,0,0,1,483,42.9Z"/><path id="E1-MJMAIN-30" class="cls-2" d="M499.49,28.74A7.44,7.44,0,0,1,506,25.32a8.52,8.52,0,0,1,4.06,1.1,7.9,7.9,0,0,1,3.29,3.89,24.22,24.22,0,0,1,1.56,9.63c0,4.37-.6,7.7-1.81,10a7.16,7.16,0,0,1-2.33,2.83,7.51,7.51,0,0,1-2.57,1.31,11.8,11.8,0,0,1-2.16.3,10.22,10.22,0,0,1-2.19-.25,7.19,7.19,0,0,1-2.58-1.36A7.61,7.61,0,0,1,498.89,50c-1.21-2.31-1.81-5.64-1.81-10Q497.08,32.59,499.49,28.74Zm9.5-.5a4,4,0,0,0-3-1.35,4,4,0,0,0-3,1.35,5.63,5.63,0,0,0-1.39,3,59,59,0,0,0-.34,8.11,69.38,69.38,0,0,0,.34,8.79,6,6,0,0,0,1.52,3.34,4,4,0,0,0,5.79,0A6.15,6.15,0,0,0,510.39,48a85.21,85.21,0,0,0,.33-8.58,61,61,0,0,0-.33-8.07A5.91,5.91,0,0,0,509,28.24Z"/><path id="E1-MJMAIN-29-2" data-name="E1-MJMAIN-29" class="cls-2" d="M519.13,21.82l.17-.05h.93l1.18,1a20.82,20.82,0,0,1,5.79,9A34.62,34.62,0,0,1,529,42.9a35.42,35.42,0,0,1-.42,5.53,36.8,36.8,0,0,1-1,4.52,18.43,18.43,0,0,1-1.56,3.72c-.68,1.24-1.21,2.18-1.61,2.83a12.61,12.61,0,0,1-1.73,2.16l-1.35,1.39a11.52,11.52,0,0,1-1,.8l-.17.17h-1a.23.23,0,0,1-.21-.13.93.93,0,0,1-.13-.38s.18-.21.46-.54q6.55-6.81,6.55-20.07t-6.55-20.07l-.46-.55A.48.48,0,0,1,519.13,21.82Z"/><path id="E1-MJMAIN-2E" class="cls-2" d="M536.33,50.92a2.54,2.54,0,0,1,.71-1.77,2.39,2.39,0,0,1,1.82-.76,2.56,2.56,0,0,1,1.78.68,2.45,2.45,0,0,1,.8,1.81,2.55,2.55,0,0,1-.72,1.82,2.38,2.38,0,0,1-1.82.76,2.45,2.45,0,0,1-1.81-.72A2.57,2.57,0,0,1,536.33,50.92Z"/><rect x="173.77" y="627.11" width="33.25" height="1.88"/><path id="E1-MJMAIN-31" class="cls-4" d="M189.55,609.18l-.28.11a8.2,8.2,0,0,1-.89.22,11,11,0,0,1-1.28.15h-.42v-1h.42a6.89,6.89,0,0,0,1.92-.34,5.15,5.15,0,0,0,1.24-.53,5.57,5.57,0,0,0,.62-.48s.12-.07.27-.07a.6.6,0,0,1,.37.13V614l0,6.64a1.14,1.14,0,0,0,.27.2,2.52,2.52,0,0,0,.53.09c.28,0,.74,0,1.37,0h.58v1H194c-.31-.05-1.48-.07-3.51-.07s-3.17,0-3.47.07h-.27v-1h1.42l.55,0,.35-.07.18,0a.56.56,0,0,0,.13-.11c.08-.08.12-.11.13-.09Z"/><path id="E1-MJMAIN-221A" class="cls-4" d="M177.74,649.28a.48.48,0,0,1-.31-.18.7.7,0,0,1-.2-.31c0-.08.22-.31.69-.66l1.46-1.11.84-.64a.15.15,0,0,1,.11,0h0c.09,0,.19.12.31.37l1.2,2.59c.28.64.5,1.14.68,1.53l1.88,4.09s.78-1.57,2.3-4.71,3-6.3,4.56-9.49,2.3-4.81,2.36-4.88a.45.45,0,0,1,.44-.31.32.32,0,0,1,.27.13.79.79,0,0,1,.15.26v.14l-5.15,10.68-5.19,10.74c-.06.11-.2.16-.42.16s-.23,0-.27-.07-.75-1.59-2.17-4.69l-2.12-4.64-.35.24c-.22.18-.45.36-.69.53A2,2,0,0,1,177.74,649.28Z"/><rect x="194.06" y="635.52" width="11.04" height="1.31"/><path id="E1-MJMAIN-32" class="cls-4" d="M196.47,644.08a1.22,1.22,0,0,1-.95-.39,1.45,1.45,0,0,1-.35-1,3.7,3.7,0,0,1,1.17-2.72,4,4,0,0,1,2.92-1.15,4.81,4.81,0,0,1,3.36,1.24,4.22,4.22,0,0,1,1.37,3.21,4,4,0,0,1-.44,1.81,6.2,6.2,0,0,1-1.06,1.5c-.42.43-1,1-1.77,1.64-.53.46-1.27,1.14-2.21,2l-1.31,1.23,1.68,0a24.58,24.58,0,0,0,3.7-.12,5.91,5.91,0,0,0,.53-2v-.07H204v.07s-.11.71-.29,2a13.93,13.93,0,0,1-.33,2v.07h-8.2v-.69a.56.56,0,0,1,.13-.33c.09-.12.31-.37.66-.77s.8-.89,1.11-1.24l.75-.82.75-.82c.14-.14.35-.39.64-.73a8,8,0,0,0,.62-.75l.51-.66a4.06,4.06,0,0,0,.47-.71c.09-.19.2-.4.33-.64a3,3,0,0,0,.29-.71q.09-.35.15-.66a3.17,3.17,0,0,0,.07-.73,4,4,0,0,0-.75-2.41,2.52,2.52,0,0,0-2.15-1,2.22,2.22,0,0,0-1.28.38,2.65,2.65,0,0,0-.78.73,1.63,1.63,0,0,0-.22.42s0,0,.11,0a1.36,1.36,0,0,1,.82.31,1.18,1.18,0,0,1,.42,1,1.34,1.34,0,0,1-.35.93A1.36,1.36,0,0,1,196.47,644.08Z"/><path id="E1-MJMAIN-28-3" data-name="E1-MJMAIN-28" class="cls-5" d="M218.9,628.05a25.56,25.56,0,0,1,.31-4.1,29.47,29.47,0,0,1,.72-3.35,13.09,13.09,0,0,1,1.16-2.75c.5-.9.9-1.59,1.19-2.09a8,8,0,0,1,1.31-1.63c.58-.59.93-.94,1-1.06a5.79,5.79,0,0,1,.78-.66h.54c.29,0,.43.09.43.28a2.47,2.47,0,0,1-.53.66,14,14,0,0,0-1.28,1.65,21.81,21.81,0,0,0-1.53,2.69,18.27,18.27,0,0,0-1.32,4.32,32,32,0,0,0-.53,6,31.36,31.36,0,0,0,.53,6A20.43,20.43,0,0,0,223,638.4a14.12,14.12,0,0,0,1.53,2.69c.52.69,1,1.24,1.31,1.66a5.6,5.6,0,0,1,.53.65c0,.19-.15.29-.46.29h-.51l-.87-.75a15.54,15.54,0,0,1-4.29-6.64A25.7,25.7,0,0,1,218.9,628.05Z"/><path id="E1-MJMATHI-3C8-3" data-name="E1-MJMATHI-3C8" class="cls-5" d="M233.16,622.07a2.73,2.73,0,0,1,2,.75,2.49,2.49,0,0,1,.76,1.85,14.86,14.86,0,0,1-1,3.31,12.35,12.35,0,0,0-1,3.91,3.17,3.17,0,0,0,.85,2.07,3.7,3.7,0,0,0,1.34.75,2.43,2.43,0,0,0,1,.25h0l2.56-10.35q2.63-10.36,2.66-10.39a1.2,1.2,0,0,1,.5-.06c.42,0,.62.07.62.22s-.84,3.64-2.53,10.35S238.42,635,238.42,635s.06,0,.18,0c1.8,0,3.5-.91,5.1-2.75a8.21,8.21,0,0,0,2.44-5.13,2.92,2.92,0,0,0-.25-1.28,1.71,1.71,0,0,0-.56-.75,2.48,2.48,0,0,1-.56-.56,1.19,1.19,0,0,1-.25-.72,1.85,1.85,0,0,1,.53-1.26,1.7,1.7,0,0,1,1.31-.59,1.48,1.48,0,0,1,1.1.56,2.79,2.79,0,0,1,.5,1.85,11.86,11.86,0,0,1-.35,2.44,19.26,19.26,0,0,1-.56,2.13,11.23,11.23,0,0,1-3.54,5.09,7.89,7.89,0,0,1-5.09,2.13h-.32l-.72,2.91q-.75,2.94-.75,3c0,.13-.25.19-.62.19h-.41c-.12-.13-.19-.21-.19-.25s.24-1.1.72-3,.72-2.85.72-2.91a3.15,3.15,0,0,0-.44,0q-5-.69-5-4.6a14.17,14.17,0,0,1,1-3.91,16.87,16.87,0,0,0,1.07-3.6v-.44a.31.31,0,0,0-.13-.21.44.44,0,0,0-.34-.13h-.13a1.84,1.84,0,0,0-1.31.59,5,5,0,0,0-.94,1.29,7.66,7.66,0,0,0-.53,1.31,3.39,3.39,0,0,1-.25.69,1.07,1.07,0,0,1-.5.06H229c-.12-.12-.19-.22-.19-.28a5.24,5.24,0,0,1,.41-1.44,6.9,6.9,0,0,1,1.5-2.22A3.33,3.33,0,0,1,233.16,622.07Z"/><path id="E1-MJMATHI-41" class="cls-4" d="M253.09,639.32c0,.35.34.56,1,.62.26,0,.4.08.4.24s0,.11,0,.29a1.12,1.12,0,0,1-.13.39c0,.06-.14.09-.29.09h-.26c-.15,0-.4,0-.75,0l-1.42,0c-1.05,0-1.72,0-2,0h-.18a.41.41,0,0,1-.15-.24c0-.4.12-.66.28-.77h.31a2.7,2.7,0,0,0,2.26-1.11q.13-.14,4-6.74t3.94-6.71a.57.57,0,0,1,.53-.26h.55a1.08,1.08,0,0,1,.13.22l.62,7.14q.63,7.15.67,7.21c.07.16.55.25,1.43.25.37,0,.56.07.56.22s0,.13-.07.31a1.26,1.26,0,0,1-.11.39s-.13.08-.31.09h-.31c-.16,0-.45,0-.86,0l-1.62,0c-1.38,0-2.29,0-2.72,0h-.26c-.09-.09-.13-.15-.13-.2s0-.17,0-.39a2,2,0,0,1,.13-.36l.09-.06h.44c.8-.05,1.27-.17,1.42-.38l-.27-3.32h-5.26l-.75,1.29A6.9,6.9,0,0,0,253.09,639.32Zm6.81-4.12c0-.16-.09-1.31-.26-3.45s-.28-3.21-.31-3.22l-.6,1-1.39,2.36-2,3.36,2.28,0C259.14,635.23,259.9,635.22,259.9,635.2Z"/><path id="E1-MJMAIN-2297" class="cls-5" d="M276.92,628.05a9.76,9.76,0,0,1,3.13-7.45,10.45,10.45,0,0,1,14.7.1,10.12,10.12,0,0,1,3,7.35,10,10,0,0,1-3,7.38,10.2,10.2,0,0,1-7.35,3,10.05,10.05,0,0,1-7.42-3A10.2,10.2,0,0,1,276.92,628.05Zm16.45-6.92a11.1,11.1,0,0,0-2.69-1.62,10,10,0,0,0-3.6-.6,8.3,8.3,0,0,0-3.4.72,7.52,7.52,0,0,0-2.38,1.5l6,6,3-3Zm-13,.91a8.68,8.68,0,0,0-2.25,6,8.58,8.58,0,0,0,2.25,6l6-6Zm13.86,12a9.14,9.14,0,0,0,0-12l-6,6ZM281.3,635a6.75,6.75,0,0,0,1.06.84,8.85,8.85,0,0,0,2,.91,9.05,9.05,0,0,0,2.91.47q.66,0,1.29-.06a5.85,5.85,0,0,0,1.12-.22l1-.31a3.59,3.59,0,0,0,.81-.38,4.64,4.64,0,0,1,.69-.37,1.48,1.48,0,0,0,.53-.38.86.86,0,0,1,.41-.28.3.3,0,0,0,.25-.22l-6.07-6Z"/><path id="E1-MJMATHI-3C8-4" data-name="E1-MJMATHI-3C8" class="cls-5" d="M311.51,622.07a2.76,2.76,0,0,1,2,.75,2.52,2.52,0,0,1,.75,1.85,15.18,15.18,0,0,1-1,3.31,11.81,11.81,0,0,0-1,3.91,3.11,3.11,0,0,0,.84,2.07,3.65,3.65,0,0,0,1.35.75,2.36,2.36,0,0,0,1,.25h0l2.56-10.35q2.63-10.36,2.66-10.39a1.2,1.2,0,0,1,.5-.06c.42,0,.63.07.63.22s-.85,3.64-2.54,10.35S316.77,635,316.77,635s.06,0,.18,0c1.8,0,3.5-.91,5.1-2.75a8.21,8.21,0,0,0,2.44-5.13,2.92,2.92,0,0,0-.25-1.28,1.71,1.71,0,0,0-.56-.75,2.48,2.48,0,0,1-.56-.56,1.19,1.19,0,0,1-.25-.72,1.85,1.85,0,0,1,.53-1.26,1.7,1.7,0,0,1,1.31-.59,1.48,1.48,0,0,1,1.1.56,2.79,2.79,0,0,1,.5,1.85,11.86,11.86,0,0,1-.35,2.44,19.26,19.26,0,0,1-.56,2.13,11.29,11.29,0,0,1-3.53,5.09,7.94,7.94,0,0,1-5.1,2.13h-.32l-.71,2.91c-.51,2-.76,3-.76,3s-.25.19-.62.19H314c-.12-.13-.19-.21-.19-.25s.24-1.1.72-3,.72-2.85.72-2.91a3.11,3.11,0,0,0-.43,0q-5-.69-5-4.6a14.17,14.17,0,0,1,1-3.91,16.87,16.87,0,0,0,1.07-3.6v-.44a.31.31,0,0,0-.13-.21.44.44,0,0,0-.34-.13h-.13a1.84,1.84,0,0,0-1.31.59,5,5,0,0,0-.94,1.29,8.57,8.57,0,0,0-.53,1.31,3.39,3.39,0,0,1-.25.69,1.07,1.07,0,0,1-.5.06h-.44c-.12-.12-.19-.22-.19-.28a5.24,5.24,0,0,1,.41-1.44,6.9,6.9,0,0,1,1.5-2.22A3.35,3.35,0,0,1,311.51,622.07Z"/><path id="E1-MJMATHI-42" class="cls-4" d="M332,626.49c-.4,0-.63,0-.71,0s-.11-.1-.11-.24c0-.4.08-.65.25-.73,0,0,1,0,2.87,0q5.73,0,6,0a4.76,4.76,0,0,1,2.32,1,2.58,2.58,0,0,1,.95,2,3.34,3.34,0,0,1-1.28,2.54,6.92,6.92,0,0,1-2.94,1.53l-.22.06a4.3,4.3,0,0,1,2.32,1,2.73,2.73,0,0,1,.93,2,4.3,4.3,0,0,1-1.6,3.12,6.29,6.29,0,0,1-3.91,1.7c-.1,0-1.66,0-4.67,0s-4.44,0-4.48-.05a.2.2,0,0,1-.09-.17,1.06,1.06,0,0,1,0-.31c.08-.28.15-.44.22-.47l.33,0h.14a12.73,12.73,0,0,0,1.32-.07.56.56,0,0,0,.42-.26q.07-.09,1.6-6.15t1.52-6.39C333.21,626.59,332.79,626.52,332,626.49Zm9.24,2.06a2.42,2.42,0,0,0-.33-1.24,1.58,1.58,0,0,0-1.08-.75c-.1,0-.78,0-2-.07h-.93l-.78,0h-.28c-.23,0-.37.09-.43.22s-.26.95-.7,2.66a.59.59,0,0,1,0,.13l-.69,2.79h1.79c1.19,0,1.88,0,2.06,0a4.23,4.23,0,0,0,2.36-1.28A3.42,3.42,0,0,0,341.19,628.55Zm-1.19,7a2.5,2.5,0,0,0-.51-1.61,1.94,1.94,0,0,0-1.32-.75c-.09,0-.7,0-1.84,0-1.74,0-2.62,0-2.63,0s-.13.56-.38,1.61-.51,2.09-.77,3.12l-.4,1.55q0,.09.27.09l1.79,0c1.31,0,2,0,2.12,0a4.27,4.27,0,0,0,2.52-1.29A3.67,3.67,0,0,0,340,635.51Z"/><path id="E1-MJMAIN-2B" class="cls-5" d="M355.46,628.45v-.4a.68.68,0,0,1,.44-.63h9.35v-4.69l0-4.69c.21-.27.41-.41.59-.41a.7.7,0,0,1,.63.47v9.32h9.32a.74.74,0,0,1,.47.63.72.72,0,0,1-.47.62H366.5V638c-.17.3-.36.44-.56.44h-.13a.59.59,0,0,1-.56-.44v-9.32H355.9a.66.66,0,0,1-.44-.62Z"/><path id="E1-MJMATHI-3D5" class="cls-5" d="M397.81,614.35a.41.41,0,0,1,.37-.19h.66c.13.13.19.21.19.25s-.31,1.43-.94,3.85c-.15.58-.29,1.2-.44,1.84s-.27,1.13-.37,1.44l-.13.5s.1,0,.28,0a5.15,5.15,0,0,1,1,.19,10.42,10.42,0,0,1,1.5.53,6,6,0,0,1,2.29,1.91,5.06,5.06,0,0,1,.91,3,6.61,6.61,0,0,1-1,3.41,9.06,9.06,0,0,1-2.41,2.69,12.83,12.83,0,0,1-3,1.69,8.61,8.61,0,0,1-3,.66h-.12l-.75,3c-.13.48-.26,1.05-.41,1.72a10.67,10.67,0,0,1-.34,1.19.46.46,0,0,1-.38.22h-.19c-.41,0-.62-.07-.62-.22s.23-1.09.69-3l.71-2.88s-.08,0-.25,0l-.62-.06a6.7,6.7,0,0,1-1.41-.44,7.28,7.28,0,0,1-1.69-.94,5.69,5.69,0,0,1-1.41-1.66,4.56,4.56,0,0,1-.59-2.56,6.59,6.59,0,0,1,1-3.54,9.09,9.09,0,0,1,2.54-2.69,14.88,14.88,0,0,1,3-1.62,7.65,7.65,0,0,1,2.75-.6c.11,0,.17,0,.19-.12l.94-3.82C397.48,615.65,397.81,614.39,397.81,614.35Zm-9,16.83a4.23,4.23,0,0,0,.38,1.84,2.74,2.74,0,0,0,1,1.19,5.51,5.51,0,0,0,1.12.56,6,6,0,0,0,1.07.25h.22l2.91-11.79-.35,0a8.9,8.9,0,0,0-.91.25,13.64,13.64,0,0,0-1.31.5,6.1,6.1,0,0,0-1.37.91,6.53,6.53,0,0,0-1.29,1.44,11.63,11.63,0,0,0-1,2.09A8.9,8.9,0,0,0,388.83,631.18Zm11.82-4.13a3.88,3.88,0,0,0-.5-2,2.85,2.85,0,0,0-1.25-1.19,8.28,8.28,0,0,0-1.22-.46,2.8,2.8,0,0,0-.75-.13h-.09l-1.44,5.85L393.9,635s0,.06,0,.06a4.89,4.89,0,0,0,1-.19,6.23,6.23,0,0,0,1.25-.43,6.9,6.9,0,0,0,2.32-1.66,6.69,6.69,0,0,0,1.37-2.19,17,17,0,0,0,.6-2A7.73,7.73,0,0,0,400.65,627.05Z"/><path id="E1-MJMATHI-41-2" data-name="E1-MJMATHI-41" class="cls-4" d="M408.26,639.32c0,.35.34.56,1,.62.27,0,.4.08.4.24s0,.11,0,.29a1.07,1.07,0,0,1-.14.39c0,.06-.14.09-.28.09h-.27c-.15,0-.4,0-.75,0l-1.42,0c-1,0-1.71,0-2,0h-.17c-.11-.1-.16-.18-.16-.24a1,1,0,0,1,.29-.77H405a2.7,2.7,0,0,0,2.25-1.11q.14-.14,4-6.74l3.93-6.71a.58.58,0,0,1,.53-.26h.56l.13.22.62,7.14q.62,7.15.66,7.21c.07.16.55.25,1.44.25.37,0,.55.07.55.22a1.85,1.85,0,0,1-.07.31,1.26,1.26,0,0,1-.11.39s-.13.08-.31.09h-.3c-.17,0-.45,0-.87,0l-1.61,0c-1.39,0-2.29,0-2.72,0h-.27c-.09-.09-.13-.15-.13-.2s0-.17,0-.39a1.73,1.73,0,0,1,.14-.36l.09-.06H414c.79-.05,1.27-.17,1.41-.38l-.26-3.32h-5.26l-.76,1.29A7.06,7.06,0,0,0,408.26,639.32Zm6.81-4.12q0-.24-.27-3.45c-.17-2.13-.28-3.21-.31-3.22l-.59,1c-.24.39-.7,1.18-1.4,2.36l-2,3.36,2.28,0Q415.07,635.23,415.07,635.2Z"/><path id="E1-MJMAIN-2297-2" data-name="E1-MJMAIN-2297" class="cls-5" d="M432.12,628.05a9.76,9.76,0,0,1,3.13-7.45,10.45,10.45,0,0,1,14.7.1,10.12,10.12,0,0,1,3,7.35,10,10,0,0,1-3,7.38,10.2,10.2,0,0,1-7.35,3,10.05,10.05,0,0,1-7.42-3A10.2,10.2,0,0,1,432.12,628.05Zm16.45-6.92a11.1,11.1,0,0,0-2.69-1.62,10,10,0,0,0-3.59-.6,8.32,8.32,0,0,0-3.41.72,7.52,7.52,0,0,0-2.38,1.5l6,6,3-3Zm-13,.91a8.68,8.68,0,0,0-2.25,6,8.58,8.58,0,0,0,2.25,6l6-6Zm13.86,12a9.14,9.14,0,0,0,0-12l-6,6ZM436.5,635a6.75,6.75,0,0,0,1.06.84,8.76,8.76,0,0,0,2,.91,9,9,0,0,0,2.9.47q.66,0,1.29-.06a5.85,5.85,0,0,0,1.12-.22l1-.31a3.9,3.9,0,0,0,.82-.38,4.11,4.11,0,0,1,.68-.37,1.62,1.62,0,0,0,.54-.38.8.8,0,0,1,.4-.28.3.3,0,0,0,.25-.22l-6.07-6Z"/><path id="E1-MJMATHI-3D5-2" data-name="E1-MJMATHI-3D5" class="cls-5" d="M474.44,614.35a.41.41,0,0,1,.37-.19h.66c.13.13.19.21.19.25s-.31,1.43-.94,3.85c-.15.58-.29,1.2-.44,1.84s-.27,1.13-.37,1.44l-.13.5s.1,0,.28,0a5.15,5.15,0,0,1,1,.19,11,11,0,0,1,1.51.53,6.09,6.09,0,0,1,2.28,1.91,5.06,5.06,0,0,1,.91,3,6.61,6.61,0,0,1-1,3.41,9.06,9.06,0,0,1-2.41,2.69,12.83,12.83,0,0,1-3,1.69,8.61,8.61,0,0,1-3,.66h-.12l-.75,3c-.13.48-.26,1.05-.41,1.72a10.67,10.67,0,0,1-.34,1.19.46.46,0,0,1-.38.22h-.19c-.41,0-.62-.07-.62-.22s.23-1.09.69-3l.71-2.88s-.08,0-.25,0l-.62-.06a6.7,6.7,0,0,1-1.41-.44,7.28,7.28,0,0,1-1.69-.94,5.52,5.52,0,0,1-1.4-1.66,4.49,4.49,0,0,1-.6-2.56,6.59,6.59,0,0,1,1-3.54,9.09,9.09,0,0,1,2.54-2.69,14.88,14.88,0,0,1,3-1.62,7.65,7.65,0,0,1,2.75-.6c.11,0,.17,0,.19-.12l.94-3.82C474.12,615.65,474.44,614.39,474.44,614.35Zm-9,16.83a4.23,4.23,0,0,0,.38,1.84,2.74,2.74,0,0,0,1,1.19,5.31,5.31,0,0,0,1.13.56,5.7,5.7,0,0,0,1.06.25h.22l2.91-11.79-.35,0a8.29,8.29,0,0,0-.9.25,12.88,12.88,0,0,0-1.32.5,6.1,6.1,0,0,0-1.37.91,6.79,6.79,0,0,0-1.29,1.44,11.63,11.63,0,0,0-1,2.09A8.9,8.9,0,0,0,465.46,631.18Zm11.82-4.13a3.88,3.88,0,0,0-.5-2,2.85,2.85,0,0,0-1.25-1.19,8.28,8.28,0,0,0-1.22-.46,2.8,2.8,0,0,0-.75-.13h-.09L472,629.08l-1.5,5.88s0,.06,0,.06a4.89,4.89,0,0,0,1-.19,6.23,6.23,0,0,0,1.25-.43,6.9,6.9,0,0,0,2.32-1.66,6.69,6.69,0,0,0,1.37-2.19,17,17,0,0,0,.6-2A7.73,7.73,0,0,0,477.28,627.05Z"/><path id="E1-MJMATHI-42-2" data-name="E1-MJMATHI-42" class="cls-4" d="M485.4,626.49c-.4,0-.64,0-.71,0s-.11-.1-.11-.24c0-.4.08-.65.24-.73s1,0,2.88,0c3.81,0,5.83,0,6,0a4.72,4.72,0,0,1,2.32,1,2.62,2.62,0,0,1,1,2,3.32,3.32,0,0,1-1.29,2.54,6.81,6.81,0,0,1-2.94,1.53l-.22.06a4.27,4.27,0,0,1,2.32,1,2.66,2.66,0,0,1,.93,2,4.32,4.32,0,0,1-1.59,3.12,6.31,6.31,0,0,1-3.92,1.7c-.1,0-1.65,0-4.66,0s-4.45,0-4.49-.05a.2.2,0,0,1-.09-.17,1.06,1.06,0,0,1,.05-.31c.07-.28.14-.44.22-.47l.33,0h.13a13.05,13.05,0,0,0,1.33-.07.6.6,0,0,0,.42-.26q.06-.09,1.59-6.15t1.53-6.39C486.66,626.59,486.24,626.52,485.4,626.49Zm9.24,2.06a2.42,2.42,0,0,0-.33-1.24,1.58,1.58,0,0,0-1.09-.75c-.1,0-.78,0-2-.07h-.93l-.77,0h-.29c-.22,0-.36.09-.42.22s-.27.95-.71,2.66a.59.59,0,0,1,0,.13l-.69,2.79h1.8c1.19,0,1.87,0,2,0a4.25,4.25,0,0,0,2.37-1.28A3.5,3.5,0,0,0,494.64,628.55Zm-1.19,7a2.5,2.5,0,0,0-.51-1.61,1.94,1.94,0,0,0-1.33-.75c-.09,0-.7,0-1.84,0-1.74,0-2.61,0-2.63,0s-.12.56-.37,1.61-.51,2.09-.78,3.12l-.4,1.55q0,.09.27.09l1.79,0c1.31,0,2,0,2.12,0a4.27,4.27,0,0,0,2.53-1.29A3.71,3.71,0,0,0,493.45,635.51Z"/><path id="E1-MJMAIN-29-3" data-name="E1-MJMAIN-29" class="cls-5" d="M502.12,612.44l.12,0h.69l.88.75a15.34,15.34,0,0,1,4.28,6.63,25.5,25.5,0,0,1,1.35,8.26,27.69,27.69,0,0,1-1,7.44,13.79,13.79,0,0,1-1.16,2.75c-.5.92-.9,1.62-1.19,2.1a9.36,9.36,0,0,1-1.28,1.59l-1,1c-.11.1-.35.3-.72.59l-.13.13h-.72a.19.19,0,0,1-.15-.1.69.69,0,0,1-.1-.28l.35-.41q4.85-5,4.85-14.85t-4.85-14.86l-.35-.41A.38.38,0,0,1,502.12,612.44Z"/><rect x="1234.59" y="319.78" width="106.62" height="4.27"/><path id="E1-MJMAIN-31-2" data-name="E1-MJMAIN-31" class="cls-6" d="M1285.23,250.5l-.93.36a20.28,20.28,0,0,1-2.84.71,33.14,33.14,0,0,1-4.13.5H1276V248.8h1.35a23.15,23.15,0,0,0,6.19-1.07,17,17,0,0,0,4-1.71,19.18,19.18,0,0,0,2-1.56c.09-.14.38-.21.85-.21a2,2,0,0,1,1.21.42v21.27l.07,21.34a3,3,0,0,0,.85.64,8.66,8.66,0,0,0,1.71.28c.9.1,2.37.14,4.41.14h1.85v3.28h-.78q-1.5-.22-11.31-.22t-11.17.22h-.85v-3.28h4.55a16.5,16.5,0,0,0,1.78-.07,6,6,0,0,0,1.14-.21,4.79,4.79,0,0,1,.57-.14,1.47,1.47,0,0,0,.42-.36c.24-.23.38-.33.43-.28Z"/><path id="E1-MJMAIN-32-2" data-name="E1-MJMAIN-32" class="cls-6" d="M1246.61,358.05a3.9,3.9,0,0,1-3.06-1.28,4.54,4.54,0,0,1-1.14-3.13,11.87,11.87,0,0,1,3.77-8.75,12.89,12.89,0,0,1,9.39-3.7,15.37,15.37,0,0,1,10.81,4,13.58,13.58,0,0,1,4.41,10.31,12.58,12.58,0,0,1-1.42,5.83,20.23,20.23,0,0,1-3.42,4.84c-1.32,1.37-3.22,3.13-5.69,5.26-1.7,1.47-4.08,3.65-7.11,6.55l-4.2,4,5.41.07q11.16,0,11.88-.35.49-.15,1.7-6.33v-.22h2.85v.22q-.07.21-.92,6.47a53.41,53.41,0,0,1-1.07,6.54v.22h-26.39v-2.21a1.8,1.8,0,0,1,.43-1.07q.42-.57,2.13-2.49c1.38-1.51,2.56-2.84,3.56-4,.42-.47,1.23-1.35,2.42-2.63s2-2.16,2.41-2.63,1.12-1.26,2.07-2.35,1.61-1.9,2-2.42.92-1.23,1.63-2.13a12.44,12.44,0,0,0,1.5-2.28c.28-.61.64-1.3,1.06-2.06a9.13,9.13,0,0,0,.93-2.28c.19-.76.35-1.47.5-2.13a11.58,11.58,0,0,0,.21-2.35,12.68,12.68,0,0,0-2.42-7.75,8.06,8.06,0,0,0-6.9-3.27,7.11,7.11,0,0,0-4.12,1.21,8.36,8.36,0,0,0-2.49,2.34,4.91,4.91,0,0,0-.71,1.35c0,.05.11.08.35.08a4.45,4.45,0,0,1,2.63,1,3.81,3.81,0,0,1,1.36,3.27,4.19,4.19,0,0,1-1.14,3A4.41,4.41,0,0,1,1246.61,358.05Z"/><path id="E1-MJMATHI-6D" class="cls-6" d="M1275.91,368.15l.21-1.14a24.88,24.88,0,0,1,.86-2.7,26,26,0,0,1,1.42-3.34,8.62,8.62,0,0,1,2.28-2.63,4.54,4.54,0,0,1,3.13-1.21,13.2,13.2,0,0,1,3.06.49,4,4,0,0,1,2.13,1.28c.43.57.81,1.1,1.14,1.57a3,3,0,0,1,.57,1.35l.14.5c0,.09,0,.14.07.14l.78-.78a13.31,13.31,0,0,1,10-4.55,15,15,0,0,1,2.21.14,7.3,7.3,0,0,1,1.85.5,6.93,6.93,0,0,1,1.35.71,13.13,13.13,0,0,1,1.06.85,2.21,2.21,0,0,1,.71.93,3.08,3.08,0,0,0,.57.92c.29.33.38.62.29.85a.51.51,0,0,0,.21.64c.24.19.29.36.14.5l.57-.71q4.49-5.34,10.6-5.33a9.48,9.48,0,0,1,6.19,1.92,7,7,0,0,1,2.42,5.62q0,3.61-2.7,11.23c-1.81,5.08-2.71,8.11-2.71,9.11a2.62,2.62,0,0,0,.36,1.35,1.29,1.29,0,0,0,1.06.36,4.79,4.79,0,0,0,3.7-2.14,16.58,16.58,0,0,0,2.78-5.83,1.89,1.89,0,0,1,.42-.93,2.8,2.8,0,0,1,1.14-.14c1,0,1.42.19,1.42.57,0,.05-.09.4-.28,1.07a22.53,22.53,0,0,1-1.56,4.05,13.58,13.58,0,0,1-3.28,4,7.06,7.06,0,0,1-4.9,1.92c-2.23,0-3.85-.64-4.84-1.92a6.39,6.39,0,0,1-1.49-4q0-1.35,2.56-8.53t2.63-10.81c0-2.8-1-4.2-3.13-4.2h-.36q-6.12,0-10.31,7.18l-.5.86-2.35,9.53q-2.34,9.32-2.7,10a3.16,3.16,0,0,1-3.06,1.92,2.2,2.2,0,0,1-1.49-.5,4,4,0,0,1-.78-.85,1.34,1.34,0,0,1-.22-.71q0-.8,2.42-10.18l2.56-10.38a14.34,14.34,0,0,0,.21-2.7q0-4.2-3.12-4.2H1301q-6.12,0-10.31,7.18l-.5.86-2.35,9.53q-2.34,9.32-2.7,10a3.16,3.16,0,0,1-3.06,1.92,2.38,2.38,0,0,1-1.49-.43,2.67,2.67,0,0,1-.79-.85,1.06,1.06,0,0,1-.14-.71q0-.93,2.7-11.67,2.77-10.95,2.78-11.45a10,10,0,0,0,.21-1.92c0-1.71-.59-2.56-1.78-2.56-1,0-1.92.66-2.63,2a17.86,17.86,0,0,0-1.63,4.34,7.64,7.64,0,0,1-.86,2.56,2.41,2.41,0,0,1-1.14.14h-1C1276.05,368.51,1275.91,368.29,1275.91,368.15Z"/><path id="E1-MJMATHI-70" class="cls-6" d="M1351.38,319.29c0-.15.09-.34.14-.57s.17-.76.36-1.57a12.9,12.9,0,0,1,.71-2.2c.28-.67.64-1.45,1.06-2.35a7.67,7.67,0,0,1,1.43-2.13,15,15,0,0,1,1.85-1.57,3.25,3.25,0,0,1,2.34-.64q5.34,0,6.83,4.55l.71-.64q4.41-3.92,8.4-3.91a8.73,8.73,0,0,1,7.25,3.34,12.69,12.69,0,0,1,2.63,8.11,21.65,21.65,0,0,1-5.4,14.16q-5.42,6.47-12.24,6.54a8.18,8.18,0,0,1-2.77-.43,7.29,7.29,0,0,1-1.64-1.06c-.57-.48-1-.88-1.35-1.21l-.5-.57q-.06.08-1.56,6.19c-1,4.08-1.49,6.14-1.49,6.19,0,.28.19.45.57.49s1.25.12,2.63.22h1.78c.28.33.42.54.42.64s-.07.52-.21,1.28a2.55,2.55,0,0,1-.43,1.06,1.56,1.56,0,0,1-.92.29h-.79c-.42,0-1.23,0-2.41-.07s-2.66-.07-4.41-.07c-3.32,0-5.43,0-6.33.14h-.57c-.34-.33-.5-.59-.5-.78a3.3,3.3,0,0,1,.92-2.49h1.43c1.61-.05,2.53-.34,2.77-.86q.21-.42,4.34-17t4.34-17.57a5,5,0,0,0,.07-1c0-1.95-.59-2.92-1.78-2.92-1,0-1.92.67-2.63,2a18.47,18.47,0,0,0-1.64,4.34,7.65,7.65,0,0,1-.85,2.56,2.25,2.25,0,0,1-1.14.15h-1C1351.52,319.64,1351.38,319.43,1351.38,319.29Zm11,13.15c1,3.61,2.8,5.41,5.27,5.41a6.37,6.37,0,0,0,4.12-1.64,12.76,12.76,0,0,0,3.27-4.12,35.37,35.37,0,0,0,2.57-7.68,42.29,42.29,0,0,0,1.35-7.83v-.42q0-5.27-4.34-5.27a5.67,5.67,0,0,0-1.57.22,6.85,6.85,0,0,0-1.56.64,9.92,9.92,0,0,0-1.42.92,12.34,12.34,0,0,0-1.21,1.07l-1.07,1.06a5.15,5.15,0,0,0-.78,1,2.31,2.31,0,0,1-.57.71l-.22.29s-.07.38-.21,1-.4,1.66-.78,3.13-.71,2.7-1,3.7Q1362.41,332.17,1362.4,332.44Z"/><path id="E1-MJMAIN-5E" class="cls-6" d="M1363.68,298.37l9.75-9.53.57.57q9.24,8.82,9.24,9l-1.84,2.07c-.1-.05-1.47-1.24-4.13-3.56l-3.77-3.27-3.91,3.34c-.62.52-1.24,1.07-1.85,1.64s-1.12,1-1.5,1.35l-.56.43c-.1.09-.45-.24-1.07-1Z"/><path id="E1-MJMAIN-32-3" data-name="E1-MJMAIN-32" class="cls-7" d="M1396.81,286.6a2.77,2.77,0,0,1-2.16-.91,3.18,3.18,0,0,1-.8-2.21,8.38,8.38,0,0,1,2.66-6.19,9.12,9.12,0,0,1,6.64-2.61,10.89,10.89,0,0,1,7.64,2.81,9.59,9.59,0,0,1,3.12,7.3,8.8,8.8,0,0,1-1,4.12,14.08,14.08,0,0,1-2.41,3.42q-1.41,1.46-4,3.72-1.82,1.56-5,4.63l-3,2.81,3.82.05q7.9,0,8.4-.25c.24-.07.64-1.56,1.21-4.47v-.16h2v.16c0,.1-.25,1.62-.65,4.57a39.2,39.2,0,0,1-.76,4.63v.15h-18.65v-1.56a1.27,1.27,0,0,1,.3-.75c.2-.27.7-.86,1.51-1.76,1-1.08,1.81-2,2.51-2.82q.45-.51,1.71-1.86l1.71-1.86,1.46-1.66q1-1.15,1.41-1.71c.26-.37.65-.87,1.15-1.51a8.2,8.2,0,0,0,1.06-1.61c.2-.43.45-.92.75-1.46a6.67,6.67,0,0,0,.66-1.61c.13-.53.25-1,.35-1.5a8.11,8.11,0,0,0,.15-1.66,9,9,0,0,0-1.71-5.49A5.71,5.71,0,0,0,1402,277a5,5,0,0,0-2.91.86,5.92,5.92,0,0,0-1.76,1.66,3.49,3.49,0,0,0-.51.95s.09.05.25.05a3.13,3.13,0,0,1,1.86.71,2.66,2.66,0,0,1,1,2.31,3,3,0,0,1-.8,2.11A3.17,3.17,0,0,1,1396.81,286.6Z"/><path id="E1-MJMATHI-78" class="cls-7" d="M1394,342.77a10.77,10.77,0,0,1,2.71-4.88,7.58,7.58,0,0,1,5.84-2.82,6,6,0,0,1,3.21.91,5.79,5.79,0,0,1,2.17,2.26c1.4-2.11,3.1-3.17,5.07-3.17a4.9,4.9,0,0,1,3.22,1.11,4,4,0,0,1,.71,5.33,3.06,3.06,0,0,1-1.36,1.11,4.15,4.15,0,0,1-1.16.2,2.24,2.24,0,0,1-1.56-.56,1.86,1.86,0,0,1-.6-1.45,3.19,3.19,0,0,1,2.52-3.17,2.54,2.54,0,0,0-2-.66,3.54,3.54,0,0,0-1,.1,5.3,5.3,0,0,0-2.82,3.32q-3,11.12-3,13a2.34,2.34,0,0,0,.81,2,2.88,2.88,0,0,0,1.76.6,5.44,5.44,0,0,0,3.67-1.66,8.27,8.27,0,0,0,2.46-4.07c.11-.33.21-.52.31-.55a3.76,3.76,0,0,1,.8-.1h.2c.5,0,.76.13.76.4,0,0,0,.22-.1.55a11.14,11.14,0,0,1-3.12,5.08,7.52,7.52,0,0,1-5.38,2.21,5.78,5.78,0,0,1-5.33-3.16c-1.38,2.07-3,3.11-4.73,3.11h-.3a4.26,4.26,0,0,1-3.52-1.3,4.58,4.58,0,0,1-1.11-2.77,3.62,3.62,0,0,1,1-2.61,3,3,0,0,1,2.26-1,1.89,1.89,0,0,1,2.16,2.11,2.74,2.74,0,0,1-.6,1.76,3.44,3.44,0,0,1-1.16,1,2.76,2.76,0,0,1-.65.25l-.15.05s.1.1.3.2.47.22.8.35a1.86,1.86,0,0,0,1,.15c1.21,0,2.25-.75,3.12-2.26a18.45,18.45,0,0,0,1.15-3.42q.71-2.61,1.41-5.43c.47-1.88.74-3,.81-3.32a13.13,13.13,0,0,0,.25-2,2.4,2.4,0,0,0-.76-2,2.67,2.67,0,0,0-1.71-.61,5.53,5.53,0,0,0-3.77,1.61,8.64,8.64,0,0,0-2.46,4.13c-.07.3-.15.47-.25.5a4.83,4.83,0,0,1-.81.1h-.7A.83.83,0,0,1,1394,342.77Z"/><path id="E1-MJMAIN-3D-2" data-name="E1-MJMAIN-3D" class="cls-6" d="M1451,315a1.54,1.54,0,0,1,1-1.42h45.31a1.45,1.45,0,0,1,.08,2.77l-22.62.07H1452.1A1.41,1.41,0,0,1,1451,315Zm0,13.8a1.42,1.42,0,0,1,1.14-1.43h45.24c.66.48,1,.95,1,1.43a1.55,1.55,0,0,1-1.07,1.42H1452A1.55,1.55,0,0,1,1451,328.82Z"/><path id="E1-MJMATHI-45" class="cls-6" d="M1557.15,324.55c-.94,0-1.42-.31-1.42-.93a11.78,11.78,0,0,1,.36-1.7,10.81,10.81,0,0,0,.35-2.49c0-1.47-.49-2.37-1.49-2.7s-3.3-.5-6.9-.5h-3.7q-.07.13-2.49,9.81t-2.42,10c0,.19.26.29.79.29s2.41,0,5.69.14q6.67,0,8.82-.14a15.52,15.52,0,0,0,4.26-.93,12,12,0,0,0,5.77-4,42.88,42.88,0,0,0,5-9.32,7,7,0,0,1,.92-1.71,4.07,4.07,0,0,1,1.07-.14c1,0,1.42.31,1.42.93q-7.47,18.06-7.82,18.42-.23.13-20.35.14h-13.44q-7.26,0-7.26-.78a8.53,8.53,0,0,1,.22-1c.19-.76.38-1.18.57-1.28a6.23,6.23,0,0,1,1.63-.21c1.28,0,2.71-.07,4.27-.22a1.88,1.88,0,0,0,1.35-.85q.15-.36,5-20l5-19.91c0-.33-.09-.5-.28-.5a20.49,20.49,0,0,0-3.77-.36h-2.21c-.28-.28-.43-.47-.43-.56s0-.5.15-1.21a2.51,2.51,0,0,1,.71-1.5H1576a.86.86,0,0,1,.5.78q0,.36-.92,8t-1,7.83c-.09.33-.57.49-1.42.49h-.86a1.07,1.07,0,0,1-.49-.92l.21-1.64a30.4,30.4,0,0,0,.21-3.7,10.93,10.93,0,0,0-.49-3.55,5.38,5.38,0,0,0-1.36-2.21,5.25,5.25,0,0,0-2.49-1.14,26.08,26.08,0,0,0-3.34-.49c-1.14-.1-2.65-.15-4.55-.15h-3.34a64.86,64.86,0,0,0-6.62.22,1,1,0,0,0-.43.64c0,.14-.78,3.06-2.2,8.75s-2.16,8.58-2.21,8.67c1.1.05,2.23.08,3.42.08h1.85q4.69,0,6.47-1.07c1.19-.71,2.25-2.63,3.2-5.76a4.13,4.13,0,0,1,.43-1.28,2.77,2.77,0,0,1,1.21-.22h.57a.87.87,0,0,1,.35.07l.14.08.15.28c.09.19.16.28.21.28l-2.35,9.39q-2.34,9.47-2.56,9.61A1.88,1.88,0,0,1,1557.15,324.55Z"/><path id="E1-MJMAIN-2C" class="cls-6" d="M1582.05,337.21v-1.78a4.47,4.47,0,0,1,1.14-3.06,3.9,3.9,0,0,1,3.06-1.28,4.66,4.66,0,0,1,3.55,1.78c1,1.19,1.59,3.27,1.64,6.26a18.22,18.22,0,0,1-.64,4.84,22.4,22.4,0,0,1-1.5,4,15.25,15.25,0,0,1-1.84,2.92q-1,1.2-1.71,1.92c-.48.47-.78.69-.93.64s-.49-.21-.92-.64-.64-.74-.64-.93.26-.57.78-1.13,1.12-1.28,1.78-2.14a13.81,13.81,0,0,0,1.85-3.55,20.43,20.43,0,0,0,1.14-5.2v-.85l-.07.07a2.08,2.08,0,0,1-.36.14,2,2,0,0,0-.43.22,1.19,1.19,0,0,1-.64.14,4.88,4.88,0,0,0-.85.07,4.23,4.23,0,0,1-3.13-1.21Z"/><path id="E1-MJMAIN-5B" class="cls-8" d="M0,397.42V331.56H9v2.64H2.64v60.58H9v2.64Z"/><path id="E1-MJMATHI-58" class="cls-8" d="M13.31,381h-.13c-.62,0-.92-.24-.92-.72a5.29,5.29,0,0,1,.19-1.05,2.44,2.44,0,0,1,.46-1.06,3.79,3.79,0,0,1,1.26-.2q5.66-.19,8.89-3.42.64-.66,7.63-8.3t6.92-7.77q-7.18-18.3-7.51-18.63c-.39-.49-1.78-.75-4.15-.79H24.11c-.26-.27-.4-.44-.4-.53s.05-.51.14-1.25A3,3,0,0,1,24.5,336h.93c1.49.08,4.14.13,8,.13h4c1.23,0,2.22,0,3-.07a6.38,6.38,0,0,1,1.32,0c.75,0,1.12.24,1.12.73,0,0,0,.33-.13.85a3.45,3.45,0,0,1-.46,1.19,1.73,1.73,0,0,1-1.06.2,8.16,8.16,0,0,0-3.55,1.12l5.07,12.77L46.17,349q6.91-7.45,6.91-8.24c0-.79-.52-1.34-1.58-1.64a4.1,4.1,0,0,1-.85-.13c-.66,0-1-.25-1-.73,0-.09,0-.44.13-1a3.08,3.08,0,0,1,.66-1.25h2.44c1,0,2.24,0,3.55.13a19,19,0,0,0,2.7.06,50.62,50.62,0,0,0,6.52-.19h.53a1.24,1.24,0,0,1,.46.72,3.66,3.66,0,0,1-.79,2.31h-1a15.61,15.61,0,0,0-4,.59,10.48,10.48,0,0,0-2.7,1.12,12,12,0,0,0-1.58,1.18l-.73.6q0-.08-6.25,6.84l-5.73,6.33s.68,1.8,2,5.26,2.79,7,4.28,10.67,2.31,5.53,2.44,5.67c.44.39,1.78.61,4,.65q2.31,0,2.31.6a9.08,9.08,0,0,1-.13.92,3.6,3.6,0,0,1-.46,1.25,1.45,1.45,0,0,1-.93.2H55.19c-1.32,0-3.27,0-5.86-.07H43.21a16.63,16.63,0,0,0-2.31.07c-.74,0-1.12-.2-1.12-.59,0-.05,0-.38.13-1a3.88,3.88,0,0,1,.27-.92.54.54,0,0,1,.33-.33,4,4,0,0,1,.59-.14,7.24,7.24,0,0,1,1-.06,4.47,4.47,0,0,0,1.71-.46c.75-.35,1.12-.57,1.12-.66s-1.07-2.57-3.09-7.71l-3.1-7.77Q26.42,374.7,26.08,375.42a2.12,2.12,0,0,0-.26.79c0,.84.64,1.39,1.91,1.65h.4a.71.71,0,0,1,.39.06h.26a.59.59,0,0,1,.2.07.39.39,0,0,1,.2.2,1.19,1.19,0,0,1,.07.46,3.71,3.71,0,0,1-.14,1.05,2,2,0,0,1-.39,1,2.66,2.66,0,0,1-1,.2H26.55c-.66,0-1.58,0-2.77-.07s-2.48,0-3.89,0C16.47,380.82,14.28,380.87,13.31,381Z"/><path id="E1-MJMAIN-5E-2" data-name="E1-MJMAIN-5E" class="cls-8" d="M36,326.89l9-8.83.53.53q8.57,8.18,8.56,8.3l-1.71,1.91c-.09-.05-1.36-1.14-3.82-3.29l-3.49-3-3.62,3.09c-.57.48-1.14,1-1.71,1.52l-1.39,1.25-.52.39c-.09.09-.42-.22-1-.92Z"/><path id="E1-MJMAIN-2C-2" data-name="E1-MJMAIN-2C" class="cls-8" d="M71.85,378.65V377a4.1,4.1,0,0,1,1.06-2.83A3.58,3.58,0,0,1,75.74,373,4.29,4.29,0,0,1,79,374.63q1.45,1.65,1.51,5.8a16.8,16.8,0,0,1-.59,4.48,20,20,0,0,1-1.38,3.75,14.93,14.93,0,0,1-1.71,2.7c-.62.74-1.14,1.34-1.58,1.78s-.73.63-.86.59-.46-.2-.86-.59-.59-.68-.59-.86.24-.53.73-1,1-1.19,1.64-2A12.33,12.33,0,0,0,77.05,386a19,19,0,0,0,1.06-4.81v-.79l-.07.07-.33.13a1.45,1.45,0,0,0-.39.2,1.15,1.15,0,0,1-.59.13,5.16,5.16,0,0,0-.79.06,3.9,3.9,0,0,1-2.9-1.12Z"/><path id="E1-MJMATHI-50" class="cls-8" d="M114.92,339.6c0-.31-1.25-.51-3.75-.59a19.8,19.8,0,0,1-2-.07c-.3,0-.46-.26-.46-.66,0,0,0-.28.14-.72a4,4,0,0,1,.59-1.45q.19-.14,12.77-.13t13.37.19a14,14,0,0,1,7.05,3.23,8.66,8.66,0,0,1,2.9,6.65q0,5.07-4.35,9.29A21.15,21.15,0,0,1,129.41,361c-.31,0-2.61.09-6.92.13h-6.25l-2,7.84c-1.32,5.09-2,7.79-2,8.1a.59.59,0,0,0,.06.33,3.34,3.34,0,0,0,.46.26,2.09,2.09,0,0,0,1.12.13,11,11,0,0,1,2.18.13h2a2.41,2.41,0,0,1,.39.73,4.29,4.29,0,0,1-.46,2,1.44,1.44,0,0,1-1,.33l-2.44-.06c-1.49-.05-3.69-.07-6.58-.07h-6.26a17.43,17.43,0,0,0-2.37.07c-.79,0-1.19-.22-1.19-.66a7.23,7.23,0,0,1,.2-.92c.18-.7.35-1.1.53-1.19a5.53,5.53,0,0,1,1.51-.2c1.19,0,2.5-.06,3.95-.19a1.73,1.73,0,0,0,1.25-.79q.21-.27,4.75-18.31T114.92,339.6Zm23.58,4.87a5.69,5.69,0,0,0-.14-1.38,7,7,0,0,0-.59-1.45,3.22,3.22,0,0,0-1.65-1.45,21.36,21.36,0,0,0-3.22-1.05c-.31-.05-2.07-.09-5.27-.13h-2.31c-.79,0-1.42,0-1.91.06a1.76,1.76,0,0,1-.79,0,1.43,1.43,0,0,0-1.18.59q-.14.4-1.25,5.07t-2.31,9.09c-.79,2.94-1.18,4.44-1.18,4.48a40.37,40.37,0,0,0,5.33.13h2.31c4.91,0,8.43-1.1,10.53-3.29a11.36,11.36,0,0,0,2.7-5.2A22.2,22.2,0,0,0,138.5,344.47Z"/><path id="E1-MJMAIN-5E-3" data-name="E1-MJMAIN-5E" class="cls-8" d="M121.77,326.89l9-8.83.53.53q8.55,8.18,8.56,8.3l-1.71,1.91c-.09-.05-1.37-1.14-3.82-3.29l-3.49-3-3.63,3.09c-.57.48-1.14,1-1.71,1.52l-1.38,1.25-.53.39c-.09.09-.41-.22-1-.92Z"/><path id="E1-MJMAIN-5D" class="cls-8" d="M148.83,334.2v-2.64h9v65.86h-9v-2.64h6.39V334.2Z"/><path id="E1-MJMAIN-3D-3" data-name="E1-MJMAIN-3D" class="cls-8" d="M187.69,358.1a1.41,1.41,0,0,1,.92-1.31h41.95a1.52,1.52,0,0,1,1,1.31,1.47,1.47,0,0,1-.92,1.25l-20.94.07H188.74A1.31,1.31,0,0,1,187.69,358.1Zm0,12.78a1.31,1.31,0,0,1,1.05-1.32h41.88c.62.44.92.88.92,1.32a1.44,1.44,0,0,1-1,1.32H188.61A1.43,1.43,0,0,1,187.69,370.88Z"/><path id="E1-MJMATHI-69-2" data-name="E1-MJMATHI-69" class="cls-8" d="M265.66,341.44a3.67,3.67,0,0,1,1.25-2.76,4.33,4.33,0,0,1,2.9-1.25,2.66,2.66,0,0,1,2,.79,2.91,2.91,0,0,1,.86,2,3.77,3.77,0,0,1-1.32,2.77,4.39,4.39,0,0,1-2.9,1.31,3,3,0,0,1-1.84-.65A2.74,2.74,0,0,1,265.66,341.44Zm-10.74,20.61a7.14,7.14,0,0,1,.6-2,30.4,30.4,0,0,1,1.58-3.36A10.85,10.85,0,0,1,260,353.3a6,6,0,0,1,3.95-1.45,6.2,6.2,0,0,1,4.28,1.51,5.33,5.33,0,0,1,1.78,4.08,12.53,12.53,0,0,1-.92,3.69q-.91,2.56-2.63,6.92c-1.14,2.89-2.07,5.37-2.77,7.44a10.71,10.71,0,0,0-.33,2.11c0,1.09.37,1.64,1.12,1.64a4.07,4.07,0,0,0,1.25-.2,4.35,4.35,0,0,0,1.52-.92,8.81,8.81,0,0,0,1.77-2.3,18.79,18.79,0,0,0,1.65-3.89A2.68,2.68,0,0,1,271,371a2.4,2.4,0,0,1,1.12-.13q1.32,0,1.32.66a7.14,7.14,0,0,1-.6,2,25.51,25.51,0,0,1-1.64,3.36,10.93,10.93,0,0,1-3,3.29,6.59,6.59,0,0,1-4.08,1.45,6.18,6.18,0,0,1-3.88-1.38,5.2,5.2,0,0,1-1.85-4.22,6.61,6.61,0,0,1,.33-2.11c.22-.66,1.17-3.16,2.83-7.5s2.64-7.09,2.9-8a11,11,0,0,0,.46-2.57c0-1.05-.37-1.58-1.12-1.58h-.13a4.59,4.59,0,0,0-3.62,2.17,15.36,15.36,0,0,0-2.5,5.53.86.86,0,0,0-.14.2.58.58,0,0,0-.06.2s0,.09-.13.13a.68.68,0,0,1-.2.07h-1.71C255.05,362.38,254.92,362.19,254.92,362.05Z"/><path id="E1-MJMAIN-210F-2" data-name="E1-MJMAIN-210F" class="cls-8" d="M288.31,341.51a1.08,1.08,0,0,0-.53-1.06,8.2,8.2,0,0,0-2.7-.26,3.52,3.52,0,0,1-1.25-.13.76.76,0,0,1-.33-.59,9.37,9.37,0,0,1,.33-1.72,8,8,0,0,1,.53-1.64c.13-.18,1.89-.33,5.27-.46,3.07-.31,4.91-.46,5.53-.46.79,0,1.18.24,1.18.72,0,.09-.19,1-.59,2.63a25.38,25.38,0,0,1-.85,3.1q0,.33,5.13.33h2.57a10.29,10.29,0,0,1,3,.33,1.47,1.47,0,0,1,1,1.58,2.3,2.3,0,0,1-.6,1.45l-.59.39H293.84l-1,4.41c-.17.66-.35,1.37-.52,2.11s-.33,1.34-.46,1.78l-.2.66q0,.26.72-.33a12.42,12.42,0,0,1,7.44-2.44,11.11,11.11,0,0,1,5.8,1.58c1.76,1.06,2.63,2.9,2.63,5.53q0,3.24-2.37,10.21a68.58,68.58,0,0,0-2.43,7.9c0,.62.26.93.92.93a3.45,3.45,0,0,0,2.63-1.58,10.88,10.88,0,0,0,2.24-4.09l.59-1.45h2.24c.84,0,1.25.18,1.25.53a9.52,9.52,0,0,1-1.05,3.36,15.6,15.6,0,0,1-3.42,4.61,7.58,7.58,0,0,1-5.21,2.37,6.92,6.92,0,0,1-3.68-1.05,6,6,0,0,1-2.44-2.7,5.69,5.69,0,0,1-.26-2.18q0-1.44,2.23-7.83c1.5-4.26,2.24-7.36,2.24-9.29,0-2.15-.87-3.23-2.63-3.23a8.91,8.91,0,0,0-3.95,1.06,9.42,9.42,0,0,0-2.7,2.11,13.59,13.59,0,0,0-2.24,3,21.63,21.63,0,0,0-1.19,3.76q-.91,3.42-2,8t-1.58,6.06a5.06,5.06,0,0,1-3.62,2.17,2.93,2.93,0,0,1-1.91-.65,2.27,2.27,0,0,1-.79-1.85l8.17-33.19c0-.17-.11-.26-.33-.26s-.93,0-2.11-.07h-.46a3,3,0,0,0-.66.07c-1.67,0-2.5-.62-2.5-1.85a2,2,0,0,1,.2-.92,1.58,1.58,0,0,1,.46-.59,1.63,1.63,0,0,1,.79-.26c.35-.05.63-.09.85-.14a6,6,0,0,1,1-.06h.92l2.9-.2Z"/><path id="E1-MJMAIN-2E-2" data-name="E1-MJMAIN-2E" class="cls-8" d="M318.47,377a3.88,3.88,0,0,1,1.12-2.76,3.74,3.74,0,0,1,2.83-1.19,4,4,0,0,1,2.77,1.06,3.81,3.81,0,0,1,1.25,2.83,4,4,0,0,1-1.12,2.83,3.73,3.73,0,0,1-2.83,1.18,3.81,3.81,0,0,1-2.83-1.12A4,4,0,0,1,318.47,377Z"/><path id="E1-MJMATHI-3C8-5" data-name="E1-MJMATHI-3C8" class="cls-9" d="M929.5,568.58a1.41,1.41,0,0,1,1.06.4,1.3,1.3,0,0,1,.39,1,8.42,8.42,0,0,1-.52,1.73,6.26,6.26,0,0,0-.51,2,1.62,1.62,0,0,0,.44,1.08,1.7,1.7,0,0,0,.7.39,1.27,1.27,0,0,0,.51.13h0l1.34-5.4c.91-3.59,1.38-5.4,1.39-5.41a.64.64,0,0,1,.26,0c.21,0,.32,0,.32.11s-.44,1.9-1.32,5.4-1.33,5.35-1.33,5.36,0,0,.09,0a3.58,3.58,0,0,0,2.66-1.43,4.3,4.3,0,0,0,1.27-2.68,1.54,1.54,0,0,0-.13-.67,1,1,0,0,0-.29-.39,1,1,0,0,1-.29-.29.62.62,0,0,1-.13-.38,1,1,0,0,1,.27-.65.89.89,0,0,1,.69-.31.77.77,0,0,1,.57.3,1.43,1.43,0,0,1,.26,1,6.14,6.14,0,0,1-.18,1.27c-.12.53-.22.9-.29,1.11a5.86,5.86,0,0,1-1.85,2.65,4.12,4.12,0,0,1-2.65,1.11h-.17l-.37,1.52c-.26,1-.39,1.54-.39,1.55s-.13.1-.33.1h-.21c-.07-.07-.1-.11-.1-.13s.13-.57.38-1.55.37-1.49.37-1.52l-.23,0c-1.73-.23-2.59-1-2.59-2.39a7.24,7.24,0,0,1,.54-2,8.54,8.54,0,0,0,.55-1.87v-.23a.19.19,0,0,0-.06-.12.28.28,0,0,0-.18-.06h-.07a.92.92,0,0,0-.68.31,2.4,2.4,0,0,0-.49.67,4.25,4.25,0,0,0-.28.68,1.37,1.37,0,0,1-.13.36.58.58,0,0,1-.26,0h-.23c-.06-.06-.1-.11-.1-.15a2.72,2.72,0,0,1,.22-.74,3.58,3.58,0,0,1,.78-1.16A1.75,1.75,0,0,1,929.5,568.58Z"/><path id="E1-MJMAIN-28-4" data-name="E1-MJMAIN-28" class="cls-9" d="M939,571.7a13.37,13.37,0,0,1,.16-2.14,15.55,15.55,0,0,1,.38-1.74,6.87,6.87,0,0,1,.6-1.44l.62-1.09a4.58,4.58,0,0,1,.68-.85c.31-.3.49-.49.54-.55a2.7,2.7,0,0,1,.41-.34h.28c.15,0,.22.05.22.14s-.09.15-.27.35a6.34,6.34,0,0,0-.67.86,11.41,11.41,0,0,0-.8,1.4,9.32,9.32,0,0,0-.68,2.25,16.12,16.12,0,0,0-.28,3.15,15.84,15.84,0,0,0,.28,3.13,10.32,10.32,0,0,0,.66,2.26,7.44,7.44,0,0,0,.8,1.41c.27.36.5.64.69.86l.27.34q0,.15-.24.15h-.26l-.46-.39a8.13,8.13,0,0,1-2.23-3.46A13.23,13.23,0,0,1,939,571.7Z"/><path id="E1-MJMATHI-78-2" data-name="E1-MJMATHI-78" class="cls-9" d="M944.69,571.06a3.59,3.59,0,0,1,.88-1.58,2.43,2.43,0,0,1,1.89-.91,2,2,0,0,1,1,.29,1.9,1.9,0,0,1,.7.74,1.94,1.94,0,0,1,1.64-1,1.61,1.61,0,0,1,1,.36,1.23,1.23,0,0,1,.45,1,1.2,1.2,0,0,1-.22.76,1,1,0,0,1-.44.36,1.18,1.18,0,0,1-.38.07.7.7,0,0,1-.5-.18.62.62,0,0,1-.2-.47,1,1,0,0,1,.82-1,.84.84,0,0,0-.66-.21,1.19,1.19,0,0,0-.31,0,1.71,1.71,0,0,0-.91,1.08,30.16,30.16,0,0,0-1,4.2.76.76,0,0,0,.26.65,1,1,0,0,0,.57.2,1.75,1.75,0,0,0,1.19-.54,2.73,2.73,0,0,0,.8-1.32c0-.11.07-.17.1-.18l.26,0h.07c.16,0,.24,0,.24.13l0,.18a3.67,3.67,0,0,1-1,1.65,2.47,2.47,0,0,1-1.75.71,1.89,1.89,0,0,1-1.73-1,1.86,1.86,0,0,1-1.53,1h-.1a1.37,1.37,0,0,1-1.14-.43,1.6,1.6,0,0,1-.36-.89,1.22,1.22,0,0,1,.31-.85,1,1,0,0,1,.74-.33.61.61,0,0,1,.7.69.92.92,0,0,1-.2.57,1,1,0,0,1-.37.32l-.21.09h0l.1.07.26.11a.7.7,0,0,0,.31.05,1.21,1.21,0,0,0,1-.73,6.8,6.8,0,0,0,.37-1.11c.15-.57.31-1.15.46-1.76s.24-1,.26-1.08a4.4,4.4,0,0,0,.08-.63.81.81,0,0,0-.24-.66.88.88,0,0,0-.56-.19,1.78,1.78,0,0,0-1.22.52,2.76,2.76,0,0,0-.8,1.34c0,.09-.05.15-.08.16l-.26,0h-.23A.24.24,0,0,1,944.69,571.06Z"/><path id="E1-MJMAIN-2C-3" data-name="E1-MJMAIN-2C" class="cls-9" d="M954.44,575.2v-.4a1.05,1.05,0,0,1,.26-.71.92.92,0,0,1,.7-.29,1.08,1.08,0,0,1,.82.41,2.23,2.23,0,0,1,.37,1.43,4.56,4.56,0,0,1-.14,1.11,5.19,5.19,0,0,1-.35.93,3.51,3.51,0,0,1-.42.67c-.15.18-.28.33-.39.44s-.18.16-.21.15-.12-.05-.22-.15-.14-.17-.14-.21.06-.13.18-.26.25-.3.41-.49a3.27,3.27,0,0,0,.42-.82,4.45,4.45,0,0,0,.26-1.19v-.19h0l-.08,0-.1.05a.26.26,0,0,1-.14,0h-.2a1,1,0,0,1-.72-.27Z"/><path id="E1-MJMATHI-74-3" data-name="E1-MJMATHI-74" class="cls-9" d="M960.85,569.5c-.08-.08-.12-.13-.12-.17a1.74,1.74,0,0,1,0-.26.86.86,0,0,1,.08-.22.16.16,0,0,1,.15-.09h1.7l.31-1.31c0-.12.07-.27.11-.47a2.91,2.91,0,0,1,.11-.42,1.87,1.87,0,0,0,.1-.33.81.81,0,0,1,.13-.28,1.62,1.62,0,0,0,.17-.19.34.34,0,0,1,.22-.15l.3,0a.51.51,0,0,1,.41.18.58.58,0,0,1,.11.31,6.13,6.13,0,0,1-.15.76c-.1.44-.2.87-.32,1.29l-.17.6a3,3,0,0,0,.82,0h.83a.26.26,0,0,1,.11.18.77.77,0,0,1-.21.57h-1.74l-.59,2.36c-.42,1.74-.63,2.67-.63,2.81,0,.45.14.68.44.68a1.52,1.52,0,0,0,1.1-.55,4.23,4.23,0,0,0,.87-1.37c0-.07.05-.11.08-.12l.24,0h.07c.16,0,.24,0,.24.13a.82.82,0,0,1,0,.2,3.77,3.77,0,0,1-.3.62,5.91,5.91,0,0,1-.55.76,3.28,3.28,0,0,1-.83.69,2.06,2.06,0,0,1-1,.27,2,2,0,0,1-.93-.24,1.42,1.42,0,0,1-.63-.85,1.54,1.54,0,0,1,0-.44v-.29l.57-2.29c.38-1.53.58-2.3.59-2.31a4.36,4.36,0,0,0-.83,0Z"/><path id="E1-MJMAIN-29-4" data-name="E1-MJMAIN-29" class="cls-9" d="M967.3,563.56h.43l.45.39a8,8,0,0,1,2.24,3.45,13.29,13.29,0,0,1,.7,4.31,14.61,14.61,0,0,1-.16,2.13,14.38,14.38,0,0,1-.38,1.75A7.26,7.26,0,0,1,970,577c-.26.48-.47.85-.62,1.1a5.29,5.29,0,0,1-.67.83l-.52.53a4,4,0,0,1-.38.31l-.06.07h-.38a.1.1,0,0,1-.08-.05.37.37,0,0,1,0-.15l.18-.21q2.54-2.62,2.53-7.74c0-3.41-.84-6-2.53-7.75l-.18-.21A.22.22,0,0,1,967.3,563.56Z"/><path id="E1-MJMAIN-3D-4" data-name="E1-MJMAIN-3D" class="cls-9" d="M978.11,570.12a.37.37,0,0,1,.23-.33h10.39a.39.39,0,0,1,.24.33c0,.12-.07.22-.23.31H978.37A.32.32,0,0,1,978.11,570.12Zm0,3.16a.34.34,0,0,1,.26-.33h10.37c.16.11.23.22.23.33a.37.37,0,0,1-.24.33H978.34A.37.37,0,0,1,978.11,573.28Z"/><rect x="996.37" y="571.21" width="33.05" height="0.98"/><path id="E1-MJMAIN-31-3" data-name="E1-MJMAIN-31" class="cls-9" d="M1012.28,555.33l-.21.08a3.6,3.6,0,0,1-.65.16,6.3,6.3,0,0,1-.95.12h-.3v-.75h.3a4.85,4.85,0,0,0,1.42-.25,3.89,3.89,0,0,0,.92-.39,4.43,4.43,0,0,0,.45-.36s.09,0,.2,0a.49.49,0,0,1,.28.09v9.77a1,1,0,0,0,.2.15,2,2,0,0,0,.39.06c.21,0,.54,0,1,0h.42v.75h-.18c-.22,0-1.09,0-2.59,0s-2.33,0-2.56,0h-.19V564h1.45l.26,0,.13,0,.1-.09q.07-.08.09-.06Z"/><path id="E1-MJMAIN-221A-2" data-name="E1-MJMAIN-221A" class="cls-9" d="M998.9,587.25a.34.34,0,0,1-.23-.13.52.52,0,0,1-.15-.23c0-.06.16-.23.51-.49l1.08-.81.62-.47a.08.08,0,0,1,.08,0h0c.07,0,.14.1.23.28s.38.82.88,1.91l.51,1.12,1.38,3s.58-1.16,1.7-3.47,2.24-4.65,3.36-7,1.7-3.55,1.74-3.6a.35.35,0,0,1,.33-.23.23.23,0,0,1,.19.1.5.5,0,0,1,.12.19v.1l-3.8,7.88-3.83,7.92c0,.08-.15.11-.31.11a.31.31,0,0,1-.2,0s-.55-1.18-1.6-3.46l-1.56-3.42-.26.17c-.16.13-.33.27-.51.4A1.24,1.24,0,0,1,998.9,587.25Z"/><rect x="1010.93" y="577.09" width="17.51" height="0.98"/><path id="E1-MJMAIN-32-4" data-name="E1-MJMAIN-32" class="cls-9" d="M1012.71,583.7a.87.87,0,0,1-.7-.3,1,1,0,0,1-.26-.71,2.7,2.7,0,0,1,.86-2,3,3,0,0,1,2.15-.85,3.52,3.52,0,0,1,2.48.92,3.11,3.11,0,0,1,1,2.36,3,3,0,0,1-.32,1.34,4.74,4.74,0,0,1-.79,1.11c-.3.31-.74.71-1.3,1.2-.39.34-.94.84-1.63,1.5l-1,.92h1.24a20.66,20.66,0,0,0,2.72-.08,4.85,4.85,0,0,0,.39-1.45v0h.65v0s-.08.53-.21,1.48a13.08,13.08,0,0,1-.24,1.5v.05h-6v-.5a.45.45,0,0,1,.09-.25c.07-.09.23-.28.49-.57l.82-.91.55-.61.56-.6.47-.54c.22-.25.37-.43.46-.55s.21-.28.37-.49a2.79,2.79,0,0,0,.34-.52c.07-.14.15-.3.25-.47a2,2,0,0,0,.21-.53c0-.17.08-.33.11-.49a2.12,2.12,0,0,0,0-.53,2.9,2.9,0,0,0-.55-1.78,1.85,1.85,0,0,0-1.58-.75,1.61,1.61,0,0,0-.95.28,2,2,0,0,0-.57.53,1.19,1.19,0,0,0-.16.31s0,0,.08,0a1,1,0,0,1,.6.23.86.86,0,0,1,.31.75.92.92,0,0,1-.26.68A1,1,0,0,1,1012.71,583.7Z"/><path id="E1-MJMATHI-3C0" class="cls-9" d="M1021.23,590.87a.48.48,0,0,1-.55-.54v-.18l.21-.45a31.24,31.24,0,0,0,1.78-4.45l.13-.4h-.52a5.71,5.71,0,0,0-.88,0,1.93,1.93,0,0,0-.64.31,2.38,2.38,0,0,0-.36.3,4.57,4.57,0,0,0-.31.34l-.14.19a.63.63,0,0,1-.25,0c-.2,0-.31,0-.31-.16a2,2,0,0,1,.31-.57,5.64,5.64,0,0,1,.9-1,2.18,2.18,0,0,1,1.16-.62c.07,0,1.3,0,3.66,0,1.74,0,2.64,0,2.68,0a.44.44,0,0,1,.32.46.68.68,0,0,1-.52.68,9.48,9.48,0,0,1-1.12,0h-1l0,.28a12.35,12.35,0,0,0-.2,1.94,7,7,0,0,0,.15,1.52,5.28,5.28,0,0,0,.31,1,1.71,1.71,0,0,1,.16.46.77.77,0,0,1-.23.52.78.78,0,0,1-.59.24.81.81,0,0,1-.29,0c-.08,0-.16-.17-.26-.4a4.65,4.65,0,0,1-.26-1c0-.1,0-.34,0-.72a10.61,10.61,0,0,1,.15-1.71c.1-.61.2-1.11.29-1.5l.17-.66h-1.6l0,.07s-.1.46-.31,1.29-.44,1.7-.7,2.62a13.12,13.12,0,0,1-.5,1.58A.69.69,0,0,1,1021.23,590.87Z"/><path id="E1-MJSZ2-222B" class="cls-9" d="M1036,588.78a.93.93,0,0,0,.83.43h0c.31,0,.61-.33.91-1a13.39,13.39,0,0,0,.85-2.67c.26-1.13.51-2.27.74-3.41s.45-2.38.68-3.7c0-.23.06-.4.08-.51q1.17-6.93,2.54-12.84c.92-4,1.58-6.51,2-7.7l.17-.49q.06-.2.27-.72a9.76,9.76,0,0,1,.44-.91,7.32,7.32,0,0,1,.56-.8,2.74,2.74,0,0,1,.72-.65,1.45,1.45,0,0,1,.83-.23,1.66,1.66,0,0,1,1.37.57,2.48,2.48,0,0,1,.52,1.31,1,1,0,0,1-.2.65.91.91,0,0,1-.37.31.9.9,0,0,1-.36,0,.88.88,0,0,1-.62-.25.82.82,0,0,1-.28-.67.88.88,0,0,1,.87-.92l0-.07-.13-.11-.13-.1a1,1,0,0,0-.54-.17.63.63,0,0,0-.43.2,3.82,3.82,0,0,0-.52.91,12.56,12.56,0,0,0-.63,1.89c-.21.79-.46,1.89-.77,3.31s-.61,3.1-.91,5q-1,5.46-2,10.32c-.69,3.23-1.24,5.58-1.63,7s-.69,2.5-.89,3.13q-1.26,3.79-3.1,3.8a1.69,1.69,0,0,1-1.19-.51,2.06,2.06,0,0,1-.61-1.38.91.91,0,0,1,.31-.79,1.12,1.12,0,0,1,.62-.21.88.88,0,0,1,.62.25.81.81,0,0,1,.28.66A.88.88,0,0,1,1036,588.78Z"/><path id="E1-MJMAIN-221E" class="cls-10" d="M1052,555.52a2.79,2.79,0,0,1,.65-1.8,2.08,2.08,0,0,1,1.65-.79,3,3,0,0,1,1.9.7,5.7,5.7,0,0,1,.85.9l.16.22.08-.12a3.36,3.36,0,0,1,2.69-1.7,2,2,0,0,1,1.62.78,2.9,2.9,0,0,1,.65,1.85,2.74,2.74,0,0,1-.64,1.78,2.08,2.08,0,0,1-1.68.81,3,3,0,0,1-1.88-.7,5.7,5.7,0,0,1-.85-.9l-.16-.22-.08.11a3.35,3.35,0,0,1-2.69,1.71,2,2,0,0,1-1.62-.78A2.9,2.9,0,0,1,1052,555.52Zm9.82,0a2.44,2.44,0,0,0-.44-1.43,1.4,1.4,0,0,0-1.24-.64,1.84,1.84,0,0,0-.47.06,1.65,1.65,0,0,0-.44.16,3.61,3.61,0,0,0-.39.22,1.27,1.27,0,0,0-.34.27,2.64,2.64,0,0,1-.29.29,1.34,1.34,0,0,0-.23.29,1.52,1.52,0,0,1-.17.25.86.86,0,0,0-.13.2l0,.09.35.46c.24.31.43.54.56.69a5.44,5.44,0,0,0,.48.51,1.75,1.75,0,0,0,.58.38,2,2,0,0,0,.59.12,1.45,1.45,0,0,0,1.17-.57A2.07,2.07,0,0,0,1061.84,555.52Zm-9.39,0a2.46,2.46,0,0,0,.45,1.44,1.42,1.42,0,0,0,1.24.64c.91,0,1.74-.61,2.5-1.84l-.35-.46a8.41,8.41,0,0,0-1-1.2,1.78,1.78,0,0,0-1.17-.5,1.42,1.42,0,0,0-1.16.57A2.14,2.14,0,0,0,1052.45,555.56Z"/><path id="E1-MJMAIN-2212-2" data-name="E1-MJMAIN-2212" class="cls-10" d="M1044.13,587.68v-.15a.25.25,0,0,1,.16-.23h6.7a.24.24,0,0,1,0,.46h-6.7a.24.24,0,0,1-.16-.23Z"/><path id="E1-MJMAIN-221E-2" data-name="E1-MJMAIN-221E" class="cls-10" d="M1052.76,587.91a2.79,2.79,0,0,1,.65-1.8,2.08,2.08,0,0,1,1.65-.79,3,3,0,0,1,1.9.7,5.28,5.28,0,0,1,.85.9l.16.22.08-.11a3.35,3.35,0,0,1,2.69-1.71,2,2,0,0,1,1.63.78A3,3,0,0,1,1063,588a2.79,2.79,0,0,1-.63,1.78,2.11,2.11,0,0,1-1.69.81,2.94,2.94,0,0,1-1.87-.7,5.31,5.31,0,0,1-.86-.9l-.16-.22-.08.12a3.35,3.35,0,0,1-2.69,1.7,2,2,0,0,1-1.62-.78A3,3,0,0,1,1052.76,587.91Zm9.82,0a2.5,2.5,0,0,0-.43-1.43,1.43,1.43,0,0,0-1.25-.64,1.84,1.84,0,0,0-.47.06,1.79,1.79,0,0,0-.44.16,3.61,3.61,0,0,0-.39.22,1.76,1.76,0,0,0-.34.27,2.6,2.6,0,0,1-.28.29,1.05,1.05,0,0,0-.23.29,1.48,1.48,0,0,1-.18.25.82.82,0,0,0-.12.2l-.06.09.36.46c.23.31.42.54.55.69a5.44,5.44,0,0,0,.48.51,1.7,1.7,0,0,0,.58.38,2,2,0,0,0,.59.12,1.43,1.43,0,0,0,1.17-.57A2,2,0,0,0,1062.58,587.91Zm-9.39,0a2.46,2.46,0,0,0,.45,1.44,1.42,1.42,0,0,0,1.24.64c.91,0,1.75-.61,2.51-1.84l-.36-.46a8.41,8.41,0,0,0-1-1.2,1.76,1.76,0,0,0-1.16-.5,1.42,1.42,0,0,0-1.17.57A2.18,2.18,0,0,0,1053.19,588Z"/><path id="E1-MJMATHI-3C8-6" data-name="E1-MJMATHI-3C8" class="cls-9" d="M1070.65,568.58a1.39,1.39,0,0,1,1.06.4,1.3,1.3,0,0,1,.39,1,7.77,7.77,0,0,1-.52,1.73,6.26,6.26,0,0,0-.51,2,1.67,1.67,0,0,0,.44,1.08,1.77,1.77,0,0,0,.7.39,1.27,1.27,0,0,0,.51.13h0l1.33-5.4c.92-3.59,1.38-5.4,1.39-5.41a.64.64,0,0,1,.26,0c.22,0,.33,0,.33.11s-.44,1.9-1.32,5.4-1.34,5.35-1.34,5.36,0,0,.1,0a3.56,3.56,0,0,0,2.65-1.43,4.37,4.37,0,0,0,1.28-2.68,1.7,1.7,0,0,0-.13-.67,1.05,1.05,0,0,0-.3-.39,1.14,1.14,0,0,1-.29-.29.62.62,0,0,1-.13-.38,1,1,0,0,1,.27-.65.89.89,0,0,1,.69-.31.74.74,0,0,1,.57.3,1.43,1.43,0,0,1,.26,1,6.14,6.14,0,0,1-.18,1.27c-.12.53-.22.9-.29,1.11a5.83,5.83,0,0,1-1.84,2.65,4.14,4.14,0,0,1-2.66,1.11h-.16l-.38,1.52c-.26,1-.39,1.54-.39,1.55s-.13.1-.33.1h-.21c-.06-.07-.1-.11-.1-.13s.13-.57.38-1.55.37-1.49.37-1.52l-.22,0c-1.73-.23-2.6-1-2.6-2.39a7.24,7.24,0,0,1,.54-2,9.51,9.51,0,0,0,.56-1.87v-.23s0-.07-.07-.12a.24.24,0,0,0-.18-.06h-.06a1,1,0,0,0-.69.31,2.4,2.4,0,0,0-.49.67,4.25,4.25,0,0,0-.28.68,1.05,1.05,0,0,1-.13.36s-.1,0-.26,0h-.22c-.07-.06-.1-.11-.1-.15a2.58,2.58,0,0,1,.21-.74,3.58,3.58,0,0,1,.78-1.16A1.75,1.75,0,0,1,1070.65,568.58Z"/><path id="E1-MJMAIN-5E-4" data-name="E1-MJMAIN-5E" class="cls-9" d="M1072.88,562.21l2.24-2.18.13.13c1.41,1.34,2.12,2,2.12,2.05l-.43.47-.94-.81-.87-.75-.89.76-.43.38-.34.31-.13.1s-.1-.06-.24-.23Z"/><path id="E1-MJMAIN-28-5" data-name="E1-MJMAIN-28" class="cls-9" d="M1080.76,571.7a13.37,13.37,0,0,1,.16-2.14,13.59,13.59,0,0,1,.38-1.74,6.87,6.87,0,0,1,.6-1.44l.62-1.09a4.58,4.58,0,0,1,.68-.85c.31-.3.49-.49.54-.55a2.7,2.7,0,0,1,.41-.34h.28c.15,0,.22.05.22.14s-.09.15-.27.35a6.34,6.34,0,0,0-.67.86,11.41,11.41,0,0,0-.8,1.4,9.75,9.75,0,0,0-.69,2.25,17,17,0,0,0-.27,3.15,16.67,16.67,0,0,0,.27,3.13,10.85,10.85,0,0,0,.67,2.26,7.44,7.44,0,0,0,.8,1.41c.27.36.5.64.69.86l.27.34q0,.15-.24.15h-.26l-.46-.39a8.13,8.13,0,0,1-2.23-3.46A13.23,13.23,0,0,1,1080.76,571.7Z"/><path id="E1-MJMATHI-6B" class="cls-9" d="M1087.56,565.23a1.42,1.42,0,0,1,.06-.38c0-.14.11-.21.2-.21l1.17-.08,1.19-.1c.13,0,.2,0,.2.13s-.28,1.21-.82,3.41-.81,3.26-.81,3.34a2.54,2.54,0,0,0,.47-.31,12.94,12.94,0,0,0,1.12-1,7.06,7.06,0,0,1,1.15-1,2.15,2.15,0,0,1,1.23-.44,1,1,0,0,1,.77.31,1.29,1.29,0,0,1,.29.88,1.7,1.7,0,0,1-.11.68.89.89,0,0,1-.31.41,1.26,1.26,0,0,1-.34.18,1,1,0,0,1-.3.05.75.75,0,0,1-.52-.18.61.61,0,0,1-.19-.47.87.87,0,0,1,.26-.67,1.19,1.19,0,0,1,.52-.34l.26,0a.57.57,0,0,0-.39-.2h-.07a2.06,2.06,0,0,0-1,.41,9.62,9.62,0,0,0-1.19,1c-.46.46-.82.79-1.08,1l.25,0a2.23,2.23,0,0,1,.39.09,3,3,0,0,0,.42.13,1.24,1.24,0,0,1,.44.23l.36.3a.93.93,0,0,1,.28.42,1.36,1.36,0,0,1,.09.54,3.08,3.08,0,0,1-.08.67c0,.26-.08.47-.1.65,0,.43.15.65.44.65.53,0,1-.65,1.28-1.94,0-.09.13-.13.32-.13h.07c.17,0,.26.05.26.15a.82.82,0,0,1,0,.22c-.45,1.54-1.09,2.3-1.92,2.3a1.68,1.68,0,0,1-1.19-.42,1.56,1.56,0,0,1-.46-1.22,2.44,2.44,0,0,1,.05-.51,1.89,1.89,0,0,0,0-.39.91.91,0,0,0-.23-.62,1.23,1.23,0,0,0-.57-.37l-.56-.18a.63.63,0,0,0-.29,0h0c-.13.45-.25.89-.34,1.32s-.18.74-.23.94-.11.41-.15.61a2.28,2.28,0,0,1-.11.39l-.12.21a.3.3,0,0,1-.18.15.82.82,0,0,1-.45.14.54.54,0,0,1-.43-.16.43.43,0,0,1-.14-.28q0-.16.6-2.61c.4-1.63.8-3.23,1.19-4.8l.6-2.37c0-.14,0-.23-.11-.26a3.12,3.12,0,0,0-.64-.08h-.29a.28.28,0,0,1-.12,0A.1.1,0,0,1,1087.56,565.23Z"/><path id="E1-MJMAIN-2C-4" data-name="E1-MJMAIN-2C" class="cls-9" d="M1095.35,575.2v-.4a1.05,1.05,0,0,1,.26-.71.9.9,0,0,1,.7-.29,1.08,1.08,0,0,1,.82.41,2.23,2.23,0,0,1,.37,1.43,4.13,4.13,0,0,1-.15,1.11,4.54,4.54,0,0,1-.34.93,3.51,3.51,0,0,1-.42.67c-.15.18-.28.33-.39.44s-.18.16-.22.15-.11-.05-.21-.15-.14-.17-.14-.21.06-.13.18-.26.25-.3.4-.49a3,3,0,0,0,.43-.82,4.87,4.87,0,0,0,.26-1.19v-.19h0l-.08,0a.24.24,0,0,0-.1.05.26.26,0,0,1-.14,0h-.2a1,1,0,0,1-.72-.27Z"/><path id="E1-MJMAIN-30-2" data-name="E1-MJMAIN-30" class="cls-9" d="M1102.91,566.24a2.88,2.88,0,0,1,2.5-1.32,3.26,3.26,0,0,1,1.56.42,3,3,0,0,1,1.27,1.5,9.17,9.17,0,0,1,.61,3.72,8.6,8.6,0,0,1-.7,3.86,2.77,2.77,0,0,1-.9,1.09,3.11,3.11,0,0,1-1,.51,5,5,0,0,1-.84.11,3.44,3.44,0,0,1-.84-.1,2.6,2.6,0,0,1-1-.52,2.8,2.8,0,0,1-.89-1.09,8.45,8.45,0,0,1-.71-3.86A8.2,8.2,0,0,1,1102.91,566.24Zm3.67-.2a1.52,1.52,0,0,0-1.16-.52,1.55,1.55,0,0,0-1.17.52,2.2,2.2,0,0,0-.54,1.17,24.59,24.59,0,0,0-.13,3.14,28.85,28.85,0,0,0,.13,3.39,2.35,2.35,0,0,0,.59,1.28,1.46,1.46,0,0,0,1.12.49,1.44,1.44,0,0,0,1.11-.49,2.32,2.32,0,0,0,.59-1.37,31.14,31.14,0,0,0,.13-3.3,22.52,22.52,0,0,0-.13-3.12A2.31,2.31,0,0,0,1106.58,566Z"/><path id="E1-MJMAIN-29-5" data-name="E1-MJMAIN-29" class="cls-9" d="M1110.48,563.56h.42l.46.39a8,8,0,0,1,2.23,3.45,13.82,13.82,0,0,1,.54,6.44,14.56,14.56,0,0,1-.37,1.75,8,8,0,0,1-.61,1.43c-.26.48-.47.85-.62,1.1a4.77,4.77,0,0,1-.67.83c-.29.3-.46.48-.52.53a3.47,3.47,0,0,1-.37.31l-.07.07h-.37a.09.09,0,0,1-.08-.05.26.26,0,0,1,0-.15l.18-.21q2.52-2.62,2.52-7.74c0-3.41-.84-6-2.52-7.75l-.18-.21A.19.19,0,0,1,1110.48,563.56Z"/><path id="E1-MJMATHI-65-2" data-name="E1-MJMATHI-65" class="cls-9" d="M1116.49,573a4.63,4.63,0,0,1,.31-1.7,4,4,0,0,1,.8-1.27,4.76,4.76,0,0,1,1.1-.85,5.58,5.58,0,0,1,1.14-.51,3.38,3.38,0,0,1,1-.14h.05a2.21,2.21,0,0,1,1.27.36,1.19,1.19,0,0,1,.54,1.06c0,1-.6,1.62-1.81,1.92a9.29,9.29,0,0,1-2.18.23,2.59,2.59,0,0,0-.62,0s0,.21-.1.57a7.72,7.72,0,0,0-.11,1,1.88,1.88,0,0,0,.34,1.2,1.25,1.25,0,0,0,1,.46,4.05,4.05,0,0,0,3-1.39c.1-.1.16-.16.2-.16s.11.05.21.15a.5.5,0,0,1,.16.23c0,.05,0,.14-.14.26a6.41,6.41,0,0,1-.49.44,6.51,6.51,0,0,1-.75.5,4.25,4.25,0,0,1-1,.41,4.69,4.69,0,0,1-1.24.16,2.4,2.4,0,0,1-2-.86A3.22,3.22,0,0,1,1116.49,573Zm5.45-3c-.07-.57-.44-.85-1.11-.85a2.19,2.19,0,0,0-1,.23,2.38,2.38,0,0,0-.74.55,4.79,4.79,0,0,0-.47.67,2.54,2.54,0,0,0-.26.59l-.08.31a1.14,1.14,0,0,0,.32,0,6,6,0,0,0,2.58-.4A1.25,1.25,0,0,0,1121.94,570Z"/><path id="E1-MJMATHI-69-3" data-name="E1-MJMATHI-69" class="cls-10" d="M1125.58,560.46a.64.64,0,0,1,.22-.48.74.74,0,0,1,.5-.22.48.48,0,0,1,.35.14.51.51,0,0,1,.15.34.68.68,0,0,1-.23.49.85.85,0,0,1-.51.23.51.51,0,0,1-.32-.12A.44.44,0,0,1,1125.58,560.46Zm-1.88,3.61a1.23,1.23,0,0,1,.1-.36,6,6,0,0,1,.28-.59,1.72,1.72,0,0,1,.51-.58,1.06,1.06,0,0,1,.69-.26,1.08,1.08,0,0,1,.75.27.94.94,0,0,1,.31.71,2.54,2.54,0,0,1-.16.65c-.11.3-.27.7-.47,1.21s-.36.94-.48,1.3a1.8,1.8,0,0,0-.06.37c0,.19.07.29.2.29a.6.6,0,0,0,.22,0,.7.7,0,0,0,.26-.16,1.39,1.39,0,0,0,.31-.4,3.09,3.09,0,0,0,.29-.68c0-.09,0-.15.06-.16s.08,0,.2,0,.23,0,.23.12a1.38,1.38,0,0,1-.11.36,3.9,3.9,0,0,1-.29.58,1.86,1.86,0,0,1-.51.58,1.19,1.19,0,0,1-.72.25,1.11,1.11,0,0,1-.68-.24.89.89,0,0,1-.32-.74,1,1,0,0,1,.06-.36c0-.12.2-.56.49-1.32s.46-1.24.51-1.39a1.94,1.94,0,0,0,.08-.45c0-.19-.07-.28-.2-.28h0a.81.81,0,0,0-.63.38,2.63,2.63,0,0,0-.44,1l0,0,0,0,0,0h-.33A.16.16,0,0,1,1123.7,564.07Z"/><path id="E1-MJMAIN-28-6" data-name="E1-MJMAIN-28" class="cls-10" d="M1128.52,564.5a9.09,9.09,0,0,1,.11-1.51,11.32,11.32,0,0,1,.27-1.24,5.15,5.15,0,0,1,.42-1c.19-.33.33-.59.44-.77a3,3,0,0,1,.48-.6l.38-.39a2.44,2.44,0,0,1,.29-.25h.2c.11,0,.16,0,.16.11a.87.87,0,0,1-.2.24,6.1,6.1,0,0,0-.47.61,8.53,8.53,0,0,0-.56,1,6.13,6.13,0,0,0-.49,1.59,11.74,11.74,0,0,0-.19,2.23,11.52,11.52,0,0,0,.19,2.21,7.15,7.15,0,0,0,.48,1.6,4.91,4.91,0,0,0,.56,1c.19.26.35.46.48.61a1.69,1.69,0,0,1,.2.25c0,.06-.06.1-.17.1h-.19l-.32-.28a5.65,5.65,0,0,1-1.58-2.44A9.44,9.44,0,0,1,1128.52,564.5Z"/><path id="E1-MJMATHI-6B-2" data-name="E1-MJMATHI-6B" class="cls-10" d="M1133.31,559.92a.91.91,0,0,1,0-.26c0-.1.07-.15.13-.15l.83-.06.85-.07c.09,0,.13,0,.13.09s-.19.86-.57,2.41-.58,2.31-.58,2.36a1.43,1.43,0,0,0,.34-.22,7.77,7.77,0,0,0,.79-.72,6.24,6.24,0,0,1,.81-.71,1.65,1.65,0,0,1,.87-.31.73.73,0,0,1,.55.22.92.92,0,0,1,.2.62,1.17,1.17,0,0,1-.08.49.55.55,0,0,1-.22.29.89.89,0,0,1-.24.12.52.52,0,0,1-.21,0,.48.48,0,0,1-.36-.13.39.39,0,0,1-.14-.33.68.68,0,0,1,.18-.48,1,1,0,0,1,.37-.24l.18,0a.4.4,0,0,0-.27-.14h-.05a1.43,1.43,0,0,0-.72.29,6.8,6.8,0,0,0-.85.74,9.41,9.41,0,0,1-.76.7l.18,0,.27.07.3.09a.85.85,0,0,1,.31.17l.26.2a.71.71,0,0,1,.19.3.79.79,0,0,1,.07.38,3.26,3.26,0,0,1,0,.48,2.24,2.24,0,0,0-.07.46c0,.3.1.46.31.46.37,0,.67-.46.9-1.37,0-.06.09-.1.23-.1h0c.13,0,.19,0,.19.11a.41.41,0,0,1,0,.16c-.31,1.08-.77,1.62-1.36,1.62a1.2,1.2,0,0,1-.84-.3,1.11,1.11,0,0,1-.32-.86,1.86,1.86,0,0,1,0-.36.93.93,0,0,0,0-.27.68.68,0,0,0-.16-.44,1,1,0,0,0-.41-.27l-.39-.12a.52.52,0,0,0-.21,0h0c-.09.32-.17.64-.24.94s-.12.52-.16.66-.08.29-.11.43a1.09,1.09,0,0,1-.08.28l-.08.15a.19.19,0,0,1-.12.1.56.56,0,0,1-.33.1.37.37,0,0,1-.3-.11.31.31,0,0,1-.1-.2c0-.07.14-.69.43-1.84s.56-2.29.84-3.4l.42-1.67a.17.17,0,0,0-.08-.19,2.1,2.1,0,0,0-.45-.05h-.2s0,0-.08,0A.06.06,0,0,1,1133.31,559.92Z"/><path id="E1-MJMATHI-78-3" data-name="E1-MJMATHI-78" class="cls-10" d="M1138.53,564.05a2.5,2.5,0,0,1,.62-1.12,1.77,1.77,0,0,1,1.34-.65,1.36,1.36,0,0,1,.74.21,1.28,1.28,0,0,1,.49.52,1.43,1.43,0,0,1,1.17-.73,1.15,1.15,0,0,1,.74.26.89.89,0,0,1,.32.68.85.85,0,0,1-.16.54.67.67,0,0,1-.31.25,1,1,0,0,1-.27,0,.52.52,0,0,1-.36-.13.42.42,0,0,1-.13-.33.73.73,0,0,1,.57-.73.58.58,0,0,0-.46-.15l-.22,0a1.23,1.23,0,0,0-.64.77,20.57,20.57,0,0,0-.69,3,.55.55,0,0,0,.18.46.67.67,0,0,0,.4.14,1.24,1.24,0,0,0,.84-.38,2,2,0,0,0,.57-.94.2.2,0,0,1,.07-.12l.18,0h0c.11,0,.17,0,.17.1l0,.12A2.5,2.5,0,0,1,1143,567a1.7,1.7,0,0,1-1.23.5,1.33,1.33,0,0,1-1.22-.72,1.34,1.34,0,0,1-1.08.71h-.07a1,1,0,0,1-.81-.3,1,1,0,0,1-.25-.63.81.81,0,0,1,.22-.6.68.68,0,0,1,.51-.23c.33,0,.5.16.5.48a.66.66,0,0,1-.14.41.87.87,0,0,1-.26.23l-.15.06h0l.07,0,.19.08a.39.39,0,0,0,.21,0,.85.85,0,0,0,.72-.52,3.53,3.53,0,0,0,.26-.78c.11-.4.22-.82.33-1.25s.17-.68.18-.76a2.77,2.77,0,0,0,.06-.45.57.57,0,0,0-.17-.46.65.65,0,0,0-.4-.14,1.25,1.25,0,0,0-.86.37,2,2,0,0,0-.57.95c0,.06,0,.1,0,.11a.66.66,0,0,1-.19,0h-.16A.19.19,0,0,1,1138.53,564.05Z"/><path id="E1-MJMAIN-2212-3" data-name="E1-MJMAIN-2212" class="cls-10" d="M1145.51,564.65v-.15a.24.24,0,0,1,.16-.23h6.69c.12.06.18.13.18.23a.27.27,0,0,1-.18.23h-6.69a.25.25,0,0,1-.16-.23Z"/><rect x="1155.46" y="564.02" width="17.72" height="0.98"/><path id="E1-MJMAIN-210F-3" data-name="E1-MJMAIN-210F" class="cls-11" d="M1158.14,555.59a.18.18,0,0,0-.07-.15,1.45,1.45,0,0,0-.39,0l-.18,0a.1.1,0,0,1,0-.09,1.23,1.23,0,0,1,0-.24.91.91,0,0,1,.08-.23,2.86,2.86,0,0,1,.75-.07l.78-.06c.12,0,.17,0,.17.1l-.08.37c-.06.24-.1.39-.12.44a2.13,2.13,0,0,0,.73,0h.36a1.2,1.2,0,0,1,.43.05.2.2,0,0,1,.14.22.37.37,0,0,1-.08.21l-.09.05h-1.64l-.14.63c0,.09,0,.19-.08.3s0,.19-.06.25l0,.1s0,0,.1-.05a1.77,1.77,0,0,1,1.06-.35,1.56,1.56,0,0,1,.82.23.84.84,0,0,1,.38.78,5.32,5.32,0,0,1-.34,1.45,9.57,9.57,0,0,0-.35,1.13.12.12,0,0,0,.13.13.51.51,0,0,0,.38-.23,1.61,1.61,0,0,0,.32-.58l.08-.2h.32c.12,0,.18,0,.18.07a1.36,1.36,0,0,1-.15.48,2.18,2.18,0,0,1-.49.65,1.08,1.08,0,0,1-.74.34,1,1,0,0,1-.52-.15.85.85,0,0,1-.35-.38,1,1,0,0,1,0-.31,5.56,5.56,0,0,1,.32-1.12,4.64,4.64,0,0,0,.32-1.31c0-.31-.13-.46-.38-.46a1.27,1.27,0,0,0-.56.15,1.18,1.18,0,0,0-.38.3,1.78,1.78,0,0,0-.32.43,4,4,0,0,0-.17.53l-.29,1.14c-.1.44-.18.73-.22.86a.46.46,0,0,1-.15.16.53.53,0,0,1-.37.15.44.44,0,0,1-.27-.09.33.33,0,0,1-.11-.26l1.16-4.72s0,0,0,0h-.46c-.23,0-.35-.09-.35-.26a.28.28,0,0,1,0-.13l.06-.09a.35.35,0,0,1,.12,0l.12,0h.27l.41,0Z"/><path id="E1-MJMATHI-6B-3" data-name="E1-MJMATHI-6B" class="cls-11" d="M1162.82,555.14a.59.59,0,0,1,0-.21c0-.08.06-.12.11-.12l.67,0,.69-.06c.07,0,.11,0,.11.08s-.16.7-.47,2-.47,1.87-.47,1.91a1.42,1.42,0,0,0,.27-.17,8,8,0,0,0,.65-.59,4.85,4.85,0,0,1,.65-.57,1.3,1.3,0,0,1,.72-.26.54.54,0,0,1,.43.18.73.73,0,0,1,.17.51,1.14,1.14,0,0,1-.06.39.62.62,0,0,1-.18.23.81.81,0,0,1-.2.11l-.16,0a.4.4,0,0,1-.3-.1.34.34,0,0,1-.12-.27.5.5,0,0,1,.15-.38.75.75,0,0,1,.3-.2l.15,0a.33.33,0,0,0-.22-.11h0a1.28,1.28,0,0,0-.59.23,6.21,6.21,0,0,0-.68.6,8.07,8.07,0,0,1-.62.57l.14,0a.71.71,0,0,1,.22.06l.25.07a.75.75,0,0,1,.25.13l.21.17a.67.67,0,0,1,.16.24.74.74,0,0,1,0,.31,2,2,0,0,1,0,.39,2.15,2.15,0,0,0-.06.37c0,.25.08.38.25.38s.54-.38.73-1.12c0-.05.08-.07.19-.07h0c.1,0,.15,0,.15.08a.39.39,0,0,1,0,.13q-.39,1.32-1.11,1.32a1,1,0,0,1-.68-.24.93.93,0,0,1-.26-.7,1.17,1.17,0,0,1,0-.29.93.93,0,0,0,0-.23.49.49,0,0,0-.13-.35.66.66,0,0,0-.32-.22l-.32-.1a.31.31,0,0,0-.17,0h0c-.07.26-.14.51-.2.76s-.1.42-.13.54-.06.23-.08.35a1.44,1.44,0,0,1-.07.22l-.06.12a.17.17,0,0,1-.1.09.53.53,0,0,1-.27.08.32.32,0,0,1-.24-.09.24.24,0,0,1-.08-.16c0-.06.11-.56.34-1.5s.46-1.85.68-2.76l.35-1.36q0-.12-.06-.15a2.83,2.83,0,0,0-.37,0h-.17l-.06,0S1162.81,555.17,1162.82,555.14Z"/><path id="E1-MJMAIN-32-5" data-name="E1-MJMAIN-32" class="cls-11" d="M1167.58,553.8a.51.51,0,0,1-.4-.17.59.59,0,0,1-.15-.41,1.55,1.55,0,0,1,.5-1.15,1.67,1.67,0,0,1,1.23-.49,2,2,0,0,1,1.42.52,1.77,1.77,0,0,1,.58,1.36,1.74,1.74,0,0,1-.18.77,3,3,0,0,1-.45.63c-.18.18-.43.42-.75.7s-.54.48-.94.86l-.55.52h.71a11,11,0,0,0,1.56-.05s.12-.29.23-.83v0h.37v0s0,.3-.12.85a5.6,5.6,0,0,1-.14.86v0H1167v-.29a.24.24,0,0,1,.06-.14,4.12,4.12,0,0,1,.28-.33l.46-.52.32-.35.32-.34.27-.31.26-.32.22-.28a2.2,2.2,0,0,0,.2-.3,1.76,1.76,0,0,1,.14-.27,1.88,1.88,0,0,0,.12-.3l.06-.28a1.42,1.42,0,0,0,0-.31,1.63,1.63,0,0,0-.32-1,1,1,0,0,0-.9-.43.94.94,0,0,0-.55.16,1.06,1.06,0,0,0-.32.31.72.72,0,0,0-.1.17h.05a.6.6,0,0,1,.34.13.52.52,0,0,1,.18.44.56.56,0,0,1-.15.39A.62.62,0,0,1,1167.58,553.8Z"/><path id="E1-MJMAIN-32-6" data-name="E1-MJMAIN-32" class="cls-11" d="M1158.88,569.9a.53.53,0,0,1-.41-.17.59.59,0,0,1-.15-.41,1.56,1.56,0,0,1,.5-1.15,1.71,1.71,0,0,1,1.23-.49,2,2,0,0,1,1.43.53,1.8,1.8,0,0,1,.58,1.35,1.72,1.72,0,0,1-.19.77,2.72,2.72,0,0,1-.45.64,9.79,9.79,0,0,1-.75.69c-.22.19-.53.48-.93.86l-.56.53h.72a12.33,12.33,0,0,0,1.56,0,2.53,2.53,0,0,0,.22-.84v0h.38v0s0,.31-.12.86a6.72,6.72,0,0,1-.15.86v0h-3.47v-.29a.24.24,0,0,1,.06-.15l.28-.32.47-.53.32-.34.31-.35.28-.31.26-.32.21-.28a1.54,1.54,0,0,0,.2-.3c0-.08.08-.17.14-.27a.94.94,0,0,0,.12-.3c0-.1,0-.19.07-.28a1.47,1.47,0,0,0,0-.31,1.69,1.69,0,0,0-.31-1,1.1,1.1,0,0,0-.91-.43,1,1,0,0,0-.54.16,1.11,1.11,0,0,0-.33.31.66.66,0,0,0-.09.18h0a.59.59,0,0,1,.35.13.5.5,0,0,1,.18.43.53.53,0,0,1-.15.39A.58.58,0,0,1,1158.88,569.9Z"/><path id="E1-MJMATHI-6D-2" data-name="E1-MJMATHI-6D" class="cls-11" d="M1162.73,571.23l0-.15a3.46,3.46,0,0,1,.11-.36,3.85,3.85,0,0,1,.19-.44,1.15,1.15,0,0,1,.3-.34.58.58,0,0,1,.41-.16,2.57,2.57,0,0,1,.4.06.54.54,0,0,1,.28.17l.15.21a.36.36,0,0,1,.08.18l0,.06s0,0,0,0l.1-.1a1.74,1.74,0,0,1,1.32-.6l.29,0a.84.84,0,0,1,.24.06.72.72,0,0,1,.18.1l.14.11a.24.24,0,0,1,.09.12.42.42,0,0,0,.08.12c0,.05,0,.08,0,.11s0,.06,0,.09,0,0,0,.06l.08-.09a1.75,1.75,0,0,1,1.39-.7,1.25,1.25,0,0,1,.82.25.93.93,0,0,1,.31.74,5.21,5.21,0,0,1-.35,1.48,6.16,6.16,0,0,0-.36,1.2.39.39,0,0,0,.05.18s.07,0,.14,0a.63.63,0,0,0,.49-.28,2.12,2.12,0,0,0,.36-.77c0-.06,0-.11.06-.12a.4.4,0,0,1,.15,0c.12,0,.18,0,.18.08l0,.14a2.66,2.66,0,0,1-.21.53,1.82,1.82,0,0,1-.43.53.92.92,0,0,1-.65.25.77.77,0,0,1-.63-.25.88.88,0,0,1-.2-.53,5.56,5.56,0,0,1,.34-1.12,4.88,4.88,0,0,0,.34-1.42c0-.37-.13-.56-.41-.56h0a1.6,1.6,0,0,0-1.36,1l-.07.11-.31,1.26c-.2.81-.32,1.25-.35,1.32a.43.43,0,0,1-.4.25.27.27,0,0,1-.2-.07.47.47,0,0,1-.1-.11.16.16,0,0,1,0-.09c0-.07.11-.52.32-1.34l.33-1.37a1.69,1.69,0,0,0,0-.35c0-.37-.13-.56-.41-.56h0a1.6,1.6,0,0,0-1.35,1l-.07.11-.31,1.26c-.2.81-.32,1.25-.35,1.32a.43.43,0,0,1-.41.25.29.29,0,0,1-.19-.06s-.09-.07-.1-.11,0-.07,0-.09.12-.6.35-1.54.37-1.46.37-1.51a1.13,1.13,0,0,0,0-.25q0-.33-.24-.33c-.14,0-.25.08-.34.26a2,2,0,0,0-.22.57,1.36,1.36,0,0,1-.11.34h-.28S1162.73,571.25,1162.73,571.23Z"/><path id="E1-MJMATHI-74-4" data-name="E1-MJMATHI-74" class="cls-10" d="M1175.44,562.94c0-.05-.08-.09-.08-.12a1.05,1.05,0,0,1,0-.18.91.91,0,0,1,.06-.16.1.1,0,0,1,.1-.06h1.2l.22-.92c0-.09,0-.2.08-.34s.06-.23.08-.3a.9.9,0,0,0,.07-.23.67.67,0,0,1,.09-.19l.12-.14a.25.25,0,0,1,.16-.1l.21,0a.36.36,0,0,1,.29.13.42.42,0,0,1,.08.22,5.26,5.26,0,0,1-.11.54c-.07.31-.14.61-.23.91l-.11.43a3.5,3.5,0,0,0,.57,0h.59a.19.19,0,0,1,.08.13.54.54,0,0,1-.15.4h-1.23l-.41,1.67q-.45,1.85-.45,2c0,.33.1.49.31.49a1.09,1.09,0,0,0,.78-.39,3,3,0,0,0,.61-1,.14.14,0,0,1,.06-.08l.17,0h0c.11,0,.17,0,.17.1a.53.53,0,0,1,0,.13,2.13,2.13,0,0,1-.21.44,4,4,0,0,1-.39.54,2,2,0,0,1-.59.49,1.42,1.42,0,0,1-.7.19,1.3,1.3,0,0,1-.66-.17,1,1,0,0,1-.45-.6,1.2,1.2,0,0,1,0-.31v-.21l.4-1.61.41-1.64a3.58,3.58,0,0,0-.58,0Z"/><path id="E1-MJMAIN-29-6" data-name="E1-MJMAIN-29" class="cls-10" d="M1180,558.74h.3l.32.28a5.62,5.62,0,0,1,1.58,2.44,9.47,9.47,0,0,1,.5,3,9.33,9.33,0,0,1-.12,1.51,9,9,0,0,1-.26,1.23,4.65,4.65,0,0,1-.43,1c-.18.34-.33.6-.44.78a3.06,3.06,0,0,1-.47.58c-.21.22-.33.35-.37.38a1.93,1.93,0,0,1-.26.22l0,0H1180a.05.05,0,0,1-.06,0,.19.19,0,0,1,0-.1l.13-.15a9.27,9.27,0,0,0,0-11l-.13-.15A.15.15,0,0,1,1180,558.74Z"/><path id="E1-MJMAIN-64" class="cls-9" d="M1191.57,567.7v-.65c0-.26,0-.44,0-.54a1.54,1.54,0,0,0-.17-.91,1.3,1.3,0,0,0-.83-.21h-.29V565c0-.25,0-.37,0-.37l.16,0,.48,0,.6,0,.6,0a4.15,4.15,0,0,0,.49,0c.11,0,.17,0,.18,0h.05v5c0,3.32,0,5,0,5a.55.55,0,0,0,.23.43,2.22,2.22,0,0,0,.73.14h.29v.75l-1.24.09-1.28.09h-.12v-.89l-.13.11a3.25,3.25,0,0,1-2.12.78,3.14,3.14,0,0,1-2.26-1,3.58,3.58,0,0,1-1-2.69,3.63,3.63,0,0,1,1-2.66,3.38,3.38,0,0,1,2.4-1,3.17,3.17,0,0,1,2.15.8Zm0,2.5a2.18,2.18,0,0,0-1.84-1,2,2,0,0,0-1.42.59,2,2,0,0,0-.55,1,8.63,8.63,0,0,0-.13,1.53,7.62,7.62,0,0,0,.11,1.49,1.85,1.85,0,0,0,.57,1,1.64,1.64,0,0,0,1.27.54,2.38,2.38,0,0,0,2-1.26Z"/><path id="E1-MJMATHI-6B-4" data-name="E1-MJMATHI-6B" class="cls-9" d="M1196.49,565.23a1.47,1.47,0,0,1,.07-.38c0-.14.11-.21.19-.21l1.18-.08,1.19-.1c.13,0,.19,0,.19.13s-.27,1.21-.81,3.41-.82,3.26-.82,3.34a2.35,2.35,0,0,0,.48-.31,12.94,12.94,0,0,0,1.12-1,7.55,7.55,0,0,1,1.14-1,2.2,2.2,0,0,1,1.24-.44,1,1,0,0,1,.77.31,1.34,1.34,0,0,1,.29.88,1.9,1.9,0,0,1-.11.68.89.89,0,0,1-.31.41,1.42,1.42,0,0,1-.34.18,1,1,0,0,1-.3.05.73.73,0,0,1-.52-.18.62.62,0,0,1-.2-.47.87.87,0,0,1,.27-.67,1.14,1.14,0,0,1,.52-.34l.26,0a.57.57,0,0,0-.39-.2h-.07a2.09,2.09,0,0,0-1,.41,11.34,11.34,0,0,0-1.19,1,13.18,13.18,0,0,1-1.07,1l.24,0a2.23,2.23,0,0,1,.39.09,2.79,2.79,0,0,0,.43.13,1.24,1.24,0,0,1,.44.23l.36.3a.85.85,0,0,1,.27.42,1.22,1.22,0,0,1,.1.54,3.86,3.86,0,0,1-.08.67,5.22,5.22,0,0,0-.1.65c0,.43.15.65.44.65.52,0,1-.65,1.27-1.94,0-.09.13-.13.33-.13h.07c.17,0,.26.05.26.15a.82.82,0,0,1-.05.22c-.45,1.54-1.09,2.3-1.93,2.3a1.7,1.7,0,0,1-1.19-.42,1.59,1.59,0,0,1-.45-1.22,1.91,1.91,0,0,1,0-.51,1.84,1.84,0,0,0,0-.39.91.91,0,0,0-.22-.62,1.34,1.34,0,0,0-.57-.37l-.56-.18a.63.63,0,0,0-.29,0h0c-.14.45-.25.89-.35,1.32s-.17.74-.23.94-.1.41-.14.61a2.06,2.06,0,0,1-.12.39l-.11.21a.3.3,0,0,1-.18.15.83.83,0,0,1-.46.14.54.54,0,0,1-.42-.16.46.46,0,0,1-.15-.28c0-.11.2-1,.61-2.61s.8-3.23,1.19-4.8l.6-2.37c0-.14,0-.23-.11-.26a3.12,3.12,0,0,0-.64-.08h-.29a.24.24,0,0,1-.12,0A.11.11,0,0,1,1196.49,565.23Z"/><path id="E1-MJMAIN-2C-5" data-name="E1-MJMAIN-2C" class="cls-9" d="M1204.29,575.2v-.4a1,1,0,0,1,.26-.71.89.89,0,0,1,.7-.29,1.07,1.07,0,0,1,.81.41,2.23,2.23,0,0,1,.38,1.43,4.13,4.13,0,0,1-.15,1.11,5.22,5.22,0,0,1-.34.93,3.51,3.51,0,0,1-.42.67c-.16.18-.29.33-.4.44s-.18.16-.21.15-.11-.05-.21-.15-.15-.17-.15-.21.06-.13.18-.26.26-.3.41-.49a3.27,3.27,0,0,0,.42-.82,4.85,4.85,0,0,0,.27-1.19v-.19h0l-.08,0a.19.19,0,0,0-.1.05.28.28,0,0,1-.15,0h-.19a1,1,0,0,1-.72-.27Z"/></g></g></g></g></svg>